<?xml version="1.0" standalone="no"?>
<!DOCTYPE svg PUBLIC "-//W3C//DTD SVG 20010904//EN"
 "http://www.w3.org/TR/2001/REC-SVG-20010904/DTD/svg10.dtd">
<svg version="1.0" xmlns="http://www.w3.org/2000/svg"
 width="1472.000000pt" height="832.000000pt" viewBox="0 0 1472.000000 832.000000"
 preserveAspectRatio="xMidYMid meet">

<g transform="translate(0.000000,832.000000) scale(0.100000,-0.100000)"
fill="#000000" stroke="none">
<path d="M4020 8300 c0 -12 9 -30 20 -42 11 -12 20 -19 20 -15 0 3 12 -1 28
-9 26 -13 27 -13 30 11 2 14 8 23 13 20 5 -4 9 -1 9 5 0 7 -8 9 -20 5 -11 -4
-20 -2 -20 4 0 6 6 10 13 9 6 -2 11 3 10 10 -2 6 1 12 7 12 5 0 12 -16 16 -35
5 -30 9 -33 24 -25 35 18 34 10 -1 -16 -19 -14 -33 -32 -31 -41 2 -10 -1 -12
-9 -7 -8 5 -9 3 -3 -7 5 -8 7 -22 6 -32 -3 -17 -1 -17 32 -3 20 8 36 11 36 5
0 -5 -7 -9 -15 -9 -8 0 -19 -10 -26 -21 -8 -15 -8 -19 0 -15 6 4 11 0 11 -9 0
-9 -4 -14 -8 -11 -4 2 -9 -5 -9 -16 -1 -11 1 -18 4 -14 9 8 34 -15 27 -25 -3
-5 0 -9 6 -9 7 0 10 6 7 14 -3 8 0 19 7 25 17 14 29 2 15 -16 -9 -10 -6 -13
12 -13 15 0 19 3 12 8 -17 11 0 34 20 26 9 -3 17 -10 17 -15 0 -4 -7 -5 -17
-2 -10 4 -14 2 -9 -5 3 -6 2 -14 -4 -17 -6 -4 -8 -15 -5 -26 5 -14 3 -17 -9
-13 -9 3 -16 14 -17 23 0 12 -2 12 -9 -4 -8 -21 14 -50 31 -39 5 3 9 1 9 -4 0
-17 -12 -21 -39 -11 -24 9 -25 8 -6 -5 11 -9 30 -25 43 -38 19 -20 22 -20 22
-5 0 10 -4 15 -10 12 -16 -10 -12 15 5 31 10 10 15 11 15 4 0 -8 10 -10 25 -8
25 5 34 -5 15 -17 -5 -3 -10 -11 -10 -16 0 -6 4 -7 10 -4 6 4 7 -1 3 -12 -3
-10 -3 -15 2 -11 4 4 16 -2 27 -14 l19 -22 5 22 c6 19 8 20 22 5 9 -8 16 -27
16 -42 0 -20 -5 -26 -21 -24 -12 1 -24 -5 -28 -14 -3 -10 -3 -14 1 -11 11 12
34 -20 27 -37 -5 -14 -2 -16 18 -11 19 6 21 5 7 -4 -20 -12 -48 -3 -48 16 0
12 -3 12 -14 2 -8 -7 -10 -16 -5 -19 5 -3 2 -14 -6 -25 -19 -25 -19 -34 0 -34
8 0 15 5 15 11 0 5 -5 7 -12 3 -7 -4 -8 -3 -4 4 7 12 36 5 36 -8 0 -5 -5 -12
-11 -16 -8 -4 -7 -9 2 -16 11 -7 11 -11 2 -15 -7 -2 -13 -11 -13 -18 0 -7 -5
-15 -11 -17 -7 -2 -5 -9 5 -17 14 -12 16 -12 11 0 -3 8 1 23 9 34 13 18 15 18
30 2 10 -9 23 -17 29 -17 7 0 6 -4 -3 -10 -13 -8 -12 -10 4 -10 11 0 16 -3 13
-7 -4 -3 -2 -12 4 -19 14 -17 1 -74 -17 -74 -8 0 -14 -6 -14 -14 0 -9 8 -12
25 -8 18 3 25 0 25 -12 0 -9 7 -16 15 -16 9 0 12 -6 9 -15 -4 -8 -1 -15 5 -15
6 0 11 -8 12 -17 0 -10 3 -13 5 -6 3 7 12 9 20 6 11 -4 12 -9 3 -19 -8 -10 -8
-14 0 -14 6 0 12 5 12 10 1 6 2 14 3 19 2 17 16 24 16 8 0 -16 34 -18 57 -4 6
4 15 2 19 -4 4 -7 3 -9 -4 -5 -6 3 -14 1 -17 -5 -4 -5 -13 -8 -20 -6 -16 7
-70 -29 -57 -37 6 -3 12 -2 14 3 6 16 43 17 40 1 -1 -9 6 -6 18 9 11 13 20 18
20 13 0 -6 -5 -14 -10 -17 -6 -4 -8 -15 -5 -25 4 -12 -2 -24 -16 -34 -19 -13
-20 -16 -6 -30 13 -14 16 -14 21 0 4 10 2 13 -7 8 -6 -4 -9 -3 -4 1 12 14 44
13 44 -1 0 -7 -5 -10 -11 -7 -6 3 -8 3 -4 -2 4 -4 3 -16 -2 -25 -7 -13 -6 -20
6 -24 12 -5 14 -1 8 16 -6 21 -5 22 11 8 17 -14 17 -13 10 10 -7 22 -6 23 8
12 9 -8 22 -11 29 -7 7 4 5 0 -5 -8 -18 -15 -18 -16 0 -27 17 -11 17 -11 -2
-7 -15 3 -21 -1 -22 -15 -1 -14 3 -17 16 -13 12 3 21 0 25 -10 6 -17 33 -20
38 -4 2 6 5 -13 6 -41 3 -62 -3 -74 -29 -60 -20 11 -24 4 -13 -24 5 -13 9 -12
29 7 23 22 40 87 23 87 -5 0 -6 4 -3 10 4 6 11 5 19 -3 8 -6 10 -14 6 -17 -4
-3 -6 -20 -5 -38 1 -22 -4 -37 -16 -45 -14 -10 -15 -15 -5 -30 7 -9 16 -14 19
-11 3 3 14 1 24 -5 17 -10 17 -10 1 -11 -10 0 -18 -5 -18 -11 0 -5 5 -7 10 -4
10 6 15 -9 10 -30 -1 -5 2 -6 7 -2 4 5 8 14 8 20 1 7 7 11 15 9 7 -2 17 3 22
10 5 8 7 2 4 -17 -3 -16 -1 -37 4 -45 6 -10 10 -11 10 -2 0 6 5 12 11 12 5 0
7 -4 4 -10 -3 -6 1 -7 9 -4 9 3 13 10 10 15 -3 5 5 9 17 9 21 0 21 0 -2 -21
l-24 -20 25 5 c14 3 19 3 13 0 -7 -3 -13 -10 -13 -15 0 -6 6 -7 13 -3 6 4 2
-4 -11 -18 -23 -25 -23 -25 -3 -31 12 -3 19 -2 17 1 -6 10 16 27 39 30 19 2
19 2 3 -11 -20 -16 -24 -28 -7 -25 6 2 14 -3 17 -11 3 -9 0 -11 -9 -6 -11 6
-11 5 -2 -5 16 -18 35 -3 24 18 -7 14 -5 18 9 18 10 0 16 -5 13 -10 -4 -5 0
-7 9 -4 8 4 15 0 15 -8 0 -7 -4 -11 -8 -8 -11 6 -42 -28 -31 -35 5 -3 12 -13
15 -21 3 -9 6 -6 6 10 1 17 4 21 9 12 5 -8 16 -10 28 -5 17 6 18 5 4 -12 -9
-12 -10 -16 -2 -11 9 6 11 1 8 -18 -3 -14 -1 -26 3 -26 5 0 11 -10 14 -21 5
-20 7 -20 22 -6 15 15 14 19 -1 44 -11 20 -12 23 -1 10 8 -10 17 -14 19 -10 3
4 3 3 2 -4 -2 -7 2 -15 8 -19 8 -5 6 -11 -4 -18 -14 -11 -22 -40 -19 -73 1 -7
8 -10 16 -7 11 5 12 9 2 25 -14 22 2 56 23 51 8 -2 10 3 7 13 -4 9 -1 15 9 15
12 0 13 -4 3 -22 -7 -13 -11 -24 -10 -26 2 -2 -1 -7 -5 -10 -4 -4 -4 0 1 8 6
12 5 12 -5 3 -17 -16 -3 -35 21 -28 12 4 19 2 19 -7 0 -10 3 -9 10 2 8 12 10
10 10 -8 0 -13 4 -21 9 -18 12 8 21 -18 16 -46 -4 -20 -3 -21 8 -7 10 14 14
14 25 3 7 -8 8 -14 2 -14 -5 0 -9 -12 -9 -27 1 -16 3 -21 6 -11 4 14 31 33 39
26 1 -2 5 -15 9 -31 6 -20 4 -27 -8 -27 -13 0 -13 -4 -4 -25 7 -14 16 -25 20
-25 5 0 5 5 1 11 -3 6 0 15 7 20 10 6 10 9 2 9 -22 0 -2 30 31 47 29 15 30 15
17 0 -7 -10 -20 -17 -27 -17 -8 0 -14 -4 -14 -10 0 -5 6 -10 14 -10 8 0 18 -4
21 -10 3 -5 0 -7 -8 -4 -10 3 -14 -4 -15 -26 0 -20 4 -30 11 -27 7 3 11 10 9
17 -6 25 22 30 36 7 7 -12 11 -14 8 -5 -3 12 -1 15 9 12 8 -3 11 -12 8 -20 -3
-8 -1 -14 5 -14 6 0 13 6 15 13 3 7 6 5 6 -5 1 -10 6 -18 13 -18 6 0 8 -3 5
-6 -9 -10 12 -46 24 -39 5 4 9 -3 9 -14 0 -14 6 -21 18 -20 10 0 12 3 5 6 -19
7 -15 22 5 18 9 -1 16 -8 14 -14 -1 -6 3 -10 9 -9 6 2 14 -3 17 -11 3 -9 0
-11 -8 -6 -9 5 -11 4 -6 -3 7 -12 46 -17 46 -6 0 3 -11 15 -24 25 -17 14 -22
25 -18 45 l5 27 14 -27 c8 -15 12 -30 10 -33 -3 -2 4 -14 15 -25 18 -18 21
-19 36 -4 15 15 15 16 0 16 -9 0 -18 6 -21 13 -6 16 29 41 38 28 3 -5 -3 -12
-12 -14 -11 -3 -5 -5 12 -6 21 -1 26 -4 16 -10 -18 -11 -22 -103 -4 -96 7 2
13 0 13 -6 0 -6 4 -8 9 -4 5 3 12 1 16 -4 3 -6 12 -8 19 -5 9 4 16 -6 20 -30
4 -20 11 -35 16 -33 5 1 15 -7 24 -18 15 -20 15 -20 12 1 -3 13 1 21 10 21 8
0 14 -5 14 -10 0 -5 7 -4 15 3 12 10 16 9 21 -4 3 -9 10 -13 15 -10 5 3 9 -5
9 -18 0 -13 3 -18 8 -12 5 8 15 8 36 -1 22 -9 25 -13 12 -18 -9 -4 -16 -2 -16
3 0 15 -17 12 -23 -4 -4 -10 -1 -13 9 -9 7 3 14 0 14 -6 0 -17 31 0 40 23 8
19 9 19 9 2 1 -16 3 -17 19 -5 15 12 14 11 -1 -8 -23 -26 -14 -51 9 -28 23 22
34 18 41 -15 3 -17 9 -32 13 -35 4 -2 5 7 2 20 -2 15 0 25 7 25 7 0 10 -4 6
-9 -3 -5 5 -20 17 -33 19 -20 29 -23 60 -18 30 5 37 3 41 -11 4 -15 1 -16 -25
-7 -22 8 -32 7 -41 -2 -9 -10 -9 -11 0 -6 14 8 56 -11 49 -22 -2 -4 5 -8 16
-8 16 0 19 6 15 29 -4 30 9 45 25 29 6 -6 17 -8 25 -5 16 6 16 7 -17 -57 -10
-20 -10 -23 0 -13 11 10 16 9 26 -5 13 -16 13 -16 14 1 0 9 8 17 18 18 10 0
12 3 5 6 -7 2 -13 9 -13 13 0 12 55 -17 56 -30 1 -5 2 -17 3 -25 1 -19 21 -20
21 -1 0 21 21 31 30 15 5 -7 6 -17 4 -21 -3 -4 1 -8 9 -8 20 0 30 -29 16 -46
-6 -7 -18 -10 -27 -7 -14 4 -14 3 -3 -5 10 -7 20 -6 33 1 17 11 22 28 20 75
-1 20 1 21 21 11 29 -15 37 -24 14 -16 -15 5 -17 2 -14 -20 2 -15 10 -29 18
-31 11 -3 11 -1 -1 7 -10 7 -11 11 -2 11 6 0 21 -9 32 -20 11 -11 31 -20 44
-20 20 0 23 -4 19 -27 -3 -24 -2 -25 6 -8 9 18 10 18 10 2 1 -15 4 -16 22 -6
15 8 18 13 10 19 -10 5 -9 9 2 13 9 3 17 -2 20 -14 3 -10 1 -19 -4 -19 -5 0
-9 -4 -9 -9 0 -6 9 -8 19 -6 15 3 18 -1 14 -12 -4 -11 -2 -14 5 -9 7 4 12 14
12 22 0 8 5 14 10 14 6 0 10 -8 10 -18 0 -11 8 -18 20 -19 13 -1 18 2 13 10
-4 8 -1 7 10 -1 9 -8 29 -13 44 -12 49 4 73 0 73 -10 0 -5 -14 -8 -32 -6 -36
4 -88 -11 -88 -26 0 -6 8 -7 18 -3 13 5 14 4 5 -6 -15 -15 -2 -44 24 -53 10
-4 14 -4 10 0 -4 4 1 13 11 20 10 8 12 13 5 14 -7 0 -13 8 -13 18 0 14 -2 15
-10 2 -6 -9 -10 -10 -10 -3 0 6 4 14 9 18 11 6 36 -34 33 -52 -3 -16 3 -16 28
-3 16 9 18 8 13 -6 -4 -12 -3 -15 5 -10 20 12 14 -5 -8 -24 -20 -17 -20 -18
14 -24 20 -4 38 -11 41 -16 6 -10 -21 -7 -31 3 -4 4 -12 7 -18 7 -16 -1 33
-40 49 -40 9 0 12 9 9 24 -2 14 0 27 5 31 5 3 8 17 5 30 -2 14 0 25 6 25 6 0
10 -26 10 -61 0 -36 4 -58 10 -54 5 3 7 13 4 23 -2 9 2 5 9 -10 12 -26 14 -27
35 -13 19 14 23 14 42 -5 11 -11 29 -20 40 -20 14 0 18 -5 13 -16 -5 -15 -3
-14 21 1 22 15 29 16 39 5 10 -10 8 -12 -5 -7 -10 3 -20 2 -23 -3 -4 -6 6 -10
20 -10 21 0 26 4 25 23 -3 34 -1 47 8 47 4 0 9 -14 10 -32 2 -18 7 -35 11 -38
5 -3 47 -5 93 -5 45 0 86 -3 89 -8 3 -4 19 -3 35 3 20 8 30 8 32 1 2 -6 8 -9
13 -5 5 3 9 0 9 -5 0 -6 -4 -11 -10 -11 -5 0 -10 -13 -10 -30 0 -16 5 -30 10
-30 6 0 10 -6 10 -14 0 -23 50 -30 65 -9 13 17 14 17 20 1 4 -9 4 -22 0 -29
-5 -8 -2 -8 11 -1 11 5 25 7 32 5 18 -7 15 -44 -5 -60 -10 -8 -12 -12 -5 -8 6
3 12 0 12 -7 1 -7 7 2 15 20 15 35 41 45 32 12 -3 -11 -1 -20 5 -20 5 0 16 -7
24 -15 10 -10 21 -12 37 -6 21 8 23 6 21 -20 -2 -27 1 -29 32 -29 34 0 41 11
35 59 -2 7 2 10 8 6 6 -3 11 -19 11 -34 0 -27 3 -28 57 -34 31 -3 68 -3 83 0
15 3 31 0 34 -6 5 -7 -9 -11 -43 -11 -49 0 -51 -1 -50 -27 1 -16 3 -21 6 -12
2 10 14 19 26 22 21 6 21 6 3 -8 -19 -14 -19 -15 6 -15 31 0 44 -15 29 -34 -6
-7 -8 -16 -4 -19 3 -4 1 -7 -5 -7 -7 0 -12 5 -12 12 0 6 -2 9 -5 6 -3 -3 -3
-13 1 -22 5 -13 9 -14 20 -5 8 6 12 15 9 19 -3 4 4 10 15 13 11 3 18 2 15 -2
-2 -4 11 -13 30 -19 l35 -10 0 43 c0 24 5 47 10 50 6 4 10 -10 10 -34 0 -22 5
-43 11 -47 8 -4 7 -9 -2 -15 -10 -6 -8 -9 9 -9 19 0 22 -4 17 -20 -4 -11 -2
-20 4 -20 6 0 11 4 11 8 0 5 7 9 15 9 10 0 15 -8 13 -21 -2 -16 2 -20 18 -18
16 2 21 -2 20 -14 -1 -20 54 -40 64 -23 8 12 40 1 40 -15 0 -6 5 -4 10 4 6 8
10 29 9 45 -2 61 5 68 10 10 l6 -60 125 -2 c69 -1 133 -2 143 -2 10 -1 16 -5
12 -11 -3 -5 -12 -7 -20 -3 -13 4 -15 -9 -15 -81 0 -47 4 -86 9 -86 5 0 8 -16
5 -35 l-4 -34 72 -1 c139 -2 197 -6 204 -13 4 -4 -1 -7 -12 -7 -19 0 -21 -27
-14 -193 0 -4 6 -2 14 5 8 7 12 16 9 21 -2 4 1 7 6 7 6 0 11 4 11 10 0 5 -5 9
-12 7 -6 -1 -13 7 -15 18 -2 16 -1 16 5 4 4 -9 15 -15 24 -13 16 2 16 0 3 -26
-19 -37 -19 -60 0 -34 17 22 19 15 6 -19 l-10 -25 95 0 94 -1 2 42 1 42 6 -45
c5 -36 10 -45 31 -51 24 -7 24 -10 -2 -13 -15 -1 -22 -57 -13 -93 3 -13 10
-21 15 -18 15 9 12 -29 -2 -44 -11 -10 -10 -11 4 -6 12 5 20 1 24 -9 3 -9 13
-16 22 -16 12 0 12 -4 -4 -21 -19 -21 -19 -21 18 -18 20 2 40 0 44 -4 11 -10
26 -9 19 2 -3 6 4 9 15 8 10 -1 22 -7 24 -14 3 -7 2 -12 -2 -12 -18 3 -32 -2
-32 -10 0 -6 9 -8 21 -6 17 4 19 2 9 -10 -11 -14 -7 -19 13 -16 4 0 7 -3 7 -9
0 -5 7 -10 15 -10 9 0 20 -11 25 -24 9 -26 30 -44 30 -27 0 6 5 11 11 11 5 0
8 -4 4 -9 -3 -5 4 -12 14 -16 11 -3 23 -15 26 -25 7 -23 45 -37 55 -20 5 8 12
0 20 -24 13 -39 31 -50 23 -13 -4 19 -3 20 7 5 8 -13 8 -23 0 -38 -10 -18 -8
-20 17 -20 22 0 25 -3 13 -10 -12 -7 -12 -12 -2 -22 9 -9 12 -9 12 0 0 6 14
-2 30 -18 36 -35 38 -35 62 -13 10 9 18 11 18 5 0 -6 -8 -16 -17 -21 -15 -9
-16 -12 -4 -20 11 -7 19 -5 28 7 12 16 13 16 7 0 -3 -9 -1 -25 5 -36 9 -17 4
-29 -36 -79 -26 -32 68 55 208 192 140 138 292 283 339 322 158 132 383 302
392 297 14 -9 -3 -26 -19 -20 -8 3 -11 2 -8 -3 3 -6 -16 -24 -42 -42 -95 -64
-337 -264 -447 -370 -119 -114 -434 -445 -376 -394 19 17 36 33 38 38 2 4 10
7 18 7 8 0 14 4 14 10 0 5 9 14 20 20 16 9 18 8 14 -5 -3 -8 -9 -13 -13 -11
-4 3 -12 -9 -19 -26 l-11 -31 20 21 c19 22 76 32 64 12 -3 -5 3 -10 13 -10 21
0 37 -26 22 -35 -5 -3 -7 -12 -4 -20 8 -21 -19 -46 -37 -34 -12 8 -11 11 4 20
15 9 16 13 5 27 -11 13 -11 15 5 9 11 -4 17 -1 17 9 0 11 -4 12 -19 4 -16 -8
-22 -6 -30 7 -6 10 -11 13 -11 6 0 -6 7 -19 17 -28 13 -14 14 -18 2 -25 -8 -6
-16 -4 -21 3 -6 9 -8 9 -8 0 0 -7 6 -17 13 -23 48 -40 62 -50 74 -50 10 0 11
-5 4 -19 -6 -10 -7 -21 -4 -25 3 -3 1 -6 -6 -6 -8 0 -7 -5 3 -16 18 -17 21
-44 6 -44 -5 0 -7 -7 -4 -15 7 -18 45 -20 40 -2 -1 6 -1 9 1 5 3 -5 11 -8 19
-8 8 0 14 -4 14 -10 0 -5 -6 -10 -14 -10 -8 0 -16 -6 -19 -14 -7 -18 18 -42
28 -26 3 5 1 10 -4 10 -6 0 -11 5 -11 11 0 8 5 7 15 -1 9 -7 13 -20 10 -28 -4
-11 0 -13 16 -9 16 4 23 -1 31 -24 5 -16 14 -29 20 -29 18 0 49 21 43 30 -3 5
-1 11 4 14 10 7 9 -20 -2 -30 -14 -15 -7 -32 12 -27 10 3 21 1 24 -4 3 -4 -8
-8 -24 -9 -15 -1 -30 4 -32 10 -2 6 -3 3 -1 -7 1 -9 -5 -21 -14 -27 -14 -8
-15 -10 -2 -11 8 -1 19 -1 23 0 5 1 5 -8 2 -20 -5 -16 -4 -19 5 -14 7 5 23 9
35 10 16 2 21 -2 21 -18 -1 -12 8 -26 19 -31 17 -10 24 -28 16 -46 -6 -13 -9
-41 -4 -36 3 3 14 -4 24 -15 9 -11 20 -20 23 -20 19 2 19 -1 2 -14 -17 -13
-17 -15 -3 -15 10 0 15 -7 12 -20 -2 -11 1 -20 6 -20 6 0 7 -4 4 -10 -3 -5 -1
-10 4 -10 6 0 11 7 11 15 0 8 7 15 16 15 8 0 12 5 9 10 -5 8 -11 8 -20 0 -9
-8 -14 -5 -18 12 -8 28 3 45 15 24 8 -14 12 -15 26 -4 13 11 14 11 7 -1 -6
-11 -4 -13 8 -8 11 4 20 -1 27 -13 6 -11 18 -19 28 -19 16 1 16 2 0 6 -10 2
-18 11 -18 19 0 8 5 12 10 9 6 -3 10 -2 10 4 0 5 -6 11 -12 14 -7 3 -3 4 9 4
12 -1 21 -4 21 -7 -1 -17 4 -20 20 -11 14 8 19 6 19 -5 0 -7 -7 -14 -15 -14
-22 0 -5 -13 19 -15 14 -1 18 3 14 13 -4 12 -3 12 9 3 7 -6 21 -8 30 -5 14 5
14 9 4 22 -11 13 -10 15 5 9 11 -4 20 -1 24 9 5 13 7 13 14 2 7 -10 9 -9 9 3
0 9 7 20 16 23 14 6 15 4 4 -9 -12 -14 -10 -15 16 -9 16 4 34 11 40 16 7 5 26
10 43 11 17 1 31 5 31 10 0 4 7 7 16 7 8 0 12 4 9 10 -3 6 1 7 9 4 13 -5 68
24 86 46 17 19 319 265 445 361 337 258 423 329 632 523 130 121 274 242 349
295 70 49 45 26 -82 -75 -62 -49 -185 -157 -275 -240 -210 -193 -302 -269
-585 -486 -127 -98 -271 -213 -319 -255 -49 -43 -117 -101 -151 -130 -72 -60
-79 -69 -54 -69 10 0 16 6 13 13 -3 7 2 13 11 13 9 0 16 5 16 10 0 6 3 9 8 9
18 -3 33 2 28 10 -3 4 10 7 28 4 23 -2 74 11 153 40 136 50 188 76 258 124
l50 35 -37 -36 c-21 -20 -35 -36 -33 -36 3 0 41 18 85 40 44 22 85 40 92 40 7
1 43 15 80 33 36 18 64 29 61 24 -3 -5 -2 -8 3 -6 32 14 166 61 264 93 63 21
158 59 210 83 152 72 248 107 170 62 -19 -11 -26 -17 -15 -14 11 4 36 12 55
17 57 16 75 28 59 39 -10 7 -6 8 11 4 28 -7 161 32 245 71 28 12 101 35 161
49 60 14 129 32 154 41 25 8 55 16 67 18 23 5 338 106 407 131 21 8 43 12 47
9 5 -3 9 0 9 5 0 6 11 11 24 11 14 0 91 22 173 49 81 27 216 63 298 81 83 17
224 49 314 71 90 22 165 38 167 36 6 -6 -288 -83 -465 -122 -139 -30 -195 -45
-169 -45 17 0 397 84 478 106 52 14 165 43 250 65 85 22 163 42 173 45 22 7
22 21 0 27 -17 4 -17 5 -1 6 17 1 18 107 18 1996 l0 1995 -5350 0 -5350 0 0
-20z m50 0 c0 -5 -2 -10 -4 -10 -3 0 -8 5 -11 10 -3 6 -1 10 4 10 6 0 11 -4
11 -10z m4 -36 c8 -22 -23 -10 -33 13 -10 21 -9 22 9 11 11 -7 22 -18 24 -24z
m36 -14 c0 -5 -5 -10 -11 -10 -5 0 -7 5 -4 10 3 6 8 10 11 10 2 0 4 -4 4 -10z
m75 -54 c-21 -32 -30 -33 -32 -4 -2 17 0 19 6 9 7 -11 12 -10 22 7 7 12 15 19
17 17 2 -2 -4 -15 -13 -29z m16 -96 c6 0 7 5 4 10 -3 6 -2 10 4 10 19 0 20
-17 0 -33 -10 -9 -19 -16 -20 -14 -4 13 -6 49 -3 40 3 -7 10 -13 15 -13z m167
-170 c-7 -10 -14 -17 -17 -15 -4 4 18 35 25 35 2 0 -1 -9 -8 -20z m2 -50 c0
-5 -2 -10 -4 -10 -3 0 -8 5 -11 10 -3 6 -1 10 4 10 6 0 11 -4 11 -10z m65
-128 c-8 -8 -25 10 -25 26 0 13 2 13 14 -4 8 -10 13 -21 11 -22z m35 -148 c0
-8 -5 -12 -10 -9 -6 4 -8 11 -5 16 9 14 15 11 15 -7z m20 -55 c0 -14 -17 -10
-23 5 -4 10 -1 13 9 9 7 -3 14 -9 14 -14z m40 -103 c0 -3 -4 -8 -10 -11 -5 -3
-10 -1 -10 4 0 6 5 11 10 11 6 0 10 -2 10 -4z m22 -33 c-6 -3 -10 -9 -6 -14 6
-11 2 -11 -20 -3 -25 10 -19 22 12 21 15 0 21 -2 14 -4z m193 -233 c3 -5 1
-10 -4 -10 -6 0 -11 5 -11 10 0 6 2 10 4 10 3 0 8 -4 11 -10z m72 -115 c0 -8
-4 -15 -9 -15 -10 0 -11 14 -1 23 9 10 10 9 10 -8z m59 -33 c-3 -2 -21 -7 -40
-12 -27 -6 -36 -5 -36 5 0 8 14 13 40 12 22 -1 38 -3 36 -5z m-46 -32 c0 -5
-5 -10 -11 -10 -5 0 -7 5 -4 10 3 6 8 10 11 10 2 0 4 -4 4 -10z m70 -16 c0 -2
-7 -4 -15 -4 -8 0 -15 4 -15 10 0 5 7 7 15 4 8 -4 15 -8 15 -10z m-45 -4 c3
-5 1 -10 -4 -10 -6 0 -11 5 -11 10 0 6 2 10 4 10 3 0 8 -4 11 -10z m88 -7 c3
-5 -6 -9 -20 -10 -19 -1 -22 1 -12 8 17 11 26 11 32 2z m-25 -40 c-6 -7 -12
-13 -13 -13 -2 0 -5 6 -8 13 -3 7 3 13 14 13 13 0 15 -3 7 -13z m136 -82 c4
-5 -3 -7 -14 -4 -23 6 -26 13 -6 13 8 0 17 -4 20 -9z m70 -86 c3 -8 1 -15 -4
-15 -6 0 -10 7 -10 15 0 8 2 15 4 15 2 0 6 -7 10 -15z m161 -175 c3 -5 1 -10
-4 -10 -6 0 -11 5 -11 10 0 6 2 10 4 10 3 0 8 -4 11 -10z m107 -79 c-4 -10 -7
-11 -10 -3 -2 7 -9 9 -14 6 -6 -4 -8 -3 -5 3 10 16 36 11 29 -6z m302 -147 c3
-8 2 -12 -4 -9 -6 3 -10 10 -10 16 0 14 7 11 14 -7z m-134 -14 c0 -5 -5 -10
-11 -10 -5 0 -7 5 -4 10 3 6 8 10 11 10 2 0 4 -4 4 -10z m210 -71 c0 -10 -6
-18 -12 -16 -8 1 -12 -7 -11 -20 2 -16 -3 -23 -15 -23 -13 0 -14 2 -4 9 10 6
9 10 -7 14 -14 3 -19 10 -15 21 3 9 10 14 14 11 15 -9 41 7 36 22 -3 8 -1 11
4 8 6 -3 10 -15 10 -26z m2 -80 c-22 -8 -22 -7 -15 19 5 21 6 21 18 5 11 -15
11 -19 -3 -24z m117 -43 c0 -7 -2 -6 -6 2 -2 6 -11 12 -19 12 -9 0 -12 5 -9
10 8 13 35 -6 34 -24z m48 -48 c-3 -7 -5 -2 -5 12 0 14 2 19 5 13 2 -7 2 -19
0 -25z m58 2 c3 -5 1 -10 -4 -10 -6 0 -11 5 -11 10 0 6 2 10 4 10 3 0 8 -4 11
-10z m142 -105 c0 -8 -4 -12 -9 -9 -5 3 -6 10 -3 15 9 13 12 11 12 -6z m207
-51 c3 -8 2 -12 -4 -9 -6 3 -10 10 -10 16 0 14 7 11 14 -7z m-39 -34 c3 -5 1
-10 -4 -10 -6 0 -11 5 -11 10 0 6 2 10 4 10 3 0 8 -4 11 -10z m285 -80 c0 -13
-11 -13 -30 0 -12 8 -11 10 8 10 12 0 22 -4 22 -10z m150 -60 c0 -11 -4 -20
-10 -20 -5 0 -10 9 -10 20 0 11 5 20 10 20 6 0 10 -9 10 -20z m75 -40 c3 -5 1
-10 -4 -10 -6 0 -11 5 -11 10 0 6 2 10 4 10 3 0 8 -4 11 -10z m122 -162 c-3
-8 -6 -5 -6 6 -1 11 2 17 5 13 3 -3 4 -12 1 -19z m118 -48 c-3 -5 -12 -10 -18
-10 -7 0 -6 4 3 10 19 12 23 12 15 0z m445 -60 c0 -5 -5 -10 -11 -10 -5 0 -7
5 -4 10 3 6 8 10 11 10 2 0 4 -4 4 -10z m95 -40 c-6 -9 -65 -11 -65 -1 0 4 16
7 35 8 19 0 33 -3 30 -7z m5915 6 c0 -2 -8 -10 -17 -17 -16 -13 -17 -12 -4 4
13 16 21 21 21 13z m-5910 -40 c0 -3 -4 -8 -10 -11 -5 -3 -10 -1 -10 4 0 6 5
11 10 11 6 0 10 -2 10 -4z m-10 -35 c0 -6 -4 -13 -10 -16 -5 -3 -10 1 -10 9 0
9 5 16 10 16 6 0 10 -4 10 -9z m199 -100 c9 -6 6 -8 -13 -8 -14 0 -23 3 -20 8
7 11 15 11 33 0z m381 -91 c0 -4 -25 -8 -56 -9 -38 -1 -54 1 -49 9 7 11 105
11 105 0z m5825 -13 c-16 -12 -70 -56 -119 -97 -49 -41 -128 -106 -176 -145
-83 -66 -162 -132 -240 -199 -28 -24 -27 -22 5 9 93 92 536 455 553 455 4 0
-6 -11 -23 -23z m-5894 -85 c-7 -2 -18 1 -23 6 -8 8 -4 9 13 5 13 -4 18 -8 10
-11z m157 -70 c6 -18 -15 -14 -22 4 -4 10 -1 14 6 12 6 -2 14 -10 16 -16z
m379 -54 c-3 -7 -5 -2 -5 12 0 14 2 19 5 13 2 -7 2 -19 0 -25z m5568 4 c-6 -5
-60 -44 -122 -87 -61 -44 -109 -84 -106 -89 4 -5 1 -6 -5 -2 -15 9 -32 -1
-191 -106 -147 -99 -170 -106 -39 -13 46 33 85 62 88 65 3 3 21 14 40 24 19
11 102 64 184 118 133 87 180 115 151 90z m-1165 -146 c0 -2 -8 -10 -17 -17
-16 -13 -17 -12 -4 4 13 16 21 21 21 13z m-40 -49 c0 -2 -12 -14 -27 -28 l-28
-24 24 28 c23 25 31 32 31 24z m-4312 -72 c-3 -3 -9 2 -12 12 -6 14 -5 15 5 6
7 -7 10 -15 7 -18z m4242 -8 c0 -1 -80 -81 -177 -177 l-178 -175 175 178 c162
164 180 182 180 174z m479 -9 c-2 -2 -20 -16 -39 -33 l-35 -30 29 33 c17 17
34 32 40 32 5 0 7 -1 5 -2z m-4426 -15 c-7 -2 -21 -2 -30 0 -10 3 -4 5 12 5
17 0 24 -2 18 -5z m4657 -77 c0 -2 -8 -10 -17 -17 -16 -13 -17 -12 -4 4 13 16
21 21 21 13z m-4666 -42 c3 -8 2 -12 -4 -9 -6 3 -10 10 -10 16 0 14 7 11 14
-7z m26 -58 c0 -2 -7 -7 -16 -10 -8 -3 -12 -2 -9 4 6 10 25 14 25 6z m5390 0
c0 -2 -7 -7 -16 -10 -8 -3 -12 -2 -9 4 6 10 25 14 25 6z m-5370 -32 c0 -9 5
-12 13 -8 7 4 8 3 4 -2 -5 -5 -24 -9 -43 -10 -36 -2 -41 5 -7 11 10 1 17 8 16
14 -2 6 2 11 7 11 6 0 10 -7 10 -16z m5095 -2 c-34 -30 -439 -257 -550 -308
-91 -42 -387 -155 -392 -150 -2 2 62 30 143 61 206 81 427 188 589 287 61 37
206 117 215 118 2 0 0 -4 -5 -8z m215 3 c0 -2 -10 -9 -22 -15 -22 -11 -22 -10
-4 4 21 17 26 19 26 11z m-59 -38 c-6 -8 -62 -40 -123 -72 -62 -32 -125 -67
-140 -77 -16 -11 -28 -17 -28 -14 0 3 -42 -15 -93 -38 -101 -47 -180 -77 -562
-214 -238 -85 -403 -137 -411 -129 -2 2 37 16 88 32 51 15 170 56 263 90 94
35 224 81 290 103 208 69 392 150 610 270 122 68 122 67 106 49z m-5056 -7 c3
-5 1 -10 -4 -10 -6 0 -11 5 -11 10 0 6 2 10 4 10 3 0 8 -4 11 -10z m3355 -73
c0 -1 -46 -47 -102 -102 l-103 -100 100 103 c93 95 105 107 105 99z m2099 -17
c-20 -12 -170 -52 -176 -47 -3 4 160 54 182 56 6 0 3 -4 -6 -9z m-192 -56 c-3
-3 -12 -4 -19 -1 -8 3 -5 6 6 6 11 1 17 -2 13 -5z m-1457 -168 c0 -8 -253
-182 -350 -241 -127 -77 -254 -150 -274 -158 -44 -17 4 16 116 79 67 38 208
126 313 196 200 134 195 130 195 124z m-890 -210 c0 -2 -8 -10 -17 -17 -16
-13 -17 -12 -4 4 13 16 21 21 21 13z m770 -20 c0 -6 -123 -47 -127 -42 -2 2
22 13 54 24 62 22 73 24 73 18z m-830 -40 c0 -2 -8 -10 -17 -17 -16 -13 -17
-12 -4 4 13 16 21 21 21 13z m-140 -129 c0 -1 -30 -32 -67 -67 l-68 -65 65 68
c60 62 70 72 70 64z m400 -27 c-8 -5 -19 -10 -25 -10 -5 0 -3 5 5 10 8 5 20
10 25 10 6 0 3 -5 -5 -10z m-591 -170 c-29 -33 -57 -60 -62 -60 -11 0 93 117
106 119 5 0 -15 -26 -44 -59z m-69 5 c-24 -25 -46 -45 -49 -45 -3 0 15 20 39
45 24 25 46 45 49 45 3 0 -15 -20 -39 -45z m-15 -75 c-3 -5 -12 -10 -18 -10
-7 0 -6 4 3 10 19 12 23 12 15 0z m-1602 -47 c-3 -7 -6 -13 -8 -13 -2 0 -5 6
-8 13 -3 8 1 14 8 14 7 0 11 -6 8 -14z m1334 -18 c-23 -22 -33 -18 -12 5 10
11 20 18 23 16 2 -3 -3 -12 -11 -21z m-1231 -120 c1 -8 -2 -15 -7 -15 -5 0 -9
5 -9 11 0 6 -8 8 -17 5 -15 -5 -15 -4 1 9 21 16 29 13 32 -10z m54 -55 c0 -5
-2 -10 -4 -10 -3 0 -8 5 -11 10 -3 6 -1 10 4 10 6 0 11 -4 11 -10z m60 -112
c0 -4 -4 -8 -9 -8 -6 0 -12 4 -15 8 -3 5 1 9 9 9 8 0 15 -4 15 -9z"/>
<path d="M4100 8130 c0 -5 5 -10 11 -10 5 0 7 5 4 10 -3 6 -8 10 -11 10 -2 0
-4 -4 -4 -10z"/>
<path d="M4117 8079 c7 -7 15 -10 18 -7 3 3 -2 9 -12 12 -14 6 -15 5 -6 -5z"/>
<path d="M4128 8013 c7 -3 16 -2 19 1 4 3 -2 6 -13 5 -11 0 -14 -3 -6 -6z"/>
<path d="M4282 7888 c2 -6 10 -14 16 -16 7 -2 10 2 6 12 -7 18 -28 22 -22 4z"/>
<path d="M4308 7863 c-29 -7 -21 -18 15 -19 17 -1 24 1 14 3 -9 2 -15 9 -12
14 4 5 5 8 3 8 -2 -1 -11 -3 -20 -6z"/>
<path d="M4370 7830 c20 -13 33 -13 25 0 -3 6 -14 10 -23 10 -15 0 -15 -2 -2
-10z"/>
<path d="M4305 7660 c3 -5 8 -10 11 -10 2 0 4 5 4 10 0 6 -5 10 -11 10 -5 0
-7 -4 -4 -10z"/>
<path d="M4387 7595 c3 -8 9 -12 14 -9 12 7 11 11 -5 17 -10 4 -13 1 -9 -8z"/>
<path d="M4396 7558 c3 -4 0 -8 -7 -8 -7 0 -9 -3 -6 -6 4 -4 14 -1 23 7 15 13
17 11 12 -18 -4 -31 -4 -32 12 -15 10 9 13 19 9 20 -5 2 -9 10 -9 17 0 8 -9
13 -19 12 -11 0 -17 -5 -15 -9z"/>
<path d="M4380 7510 c0 -5 5 -10 11 -10 5 0 7 5 4 10 -3 6 -8 10 -11 10 -2 0
-4 -4 -4 -10z"/>
<path d="M4569 7312 c-10 -12 -13 -25 -8 -38 4 -10 8 -16 10 -11 4 16 7 27 8
35 1 4 5 2 9 -4 5 -9 11 -8 20 2 10 12 10 14 -2 14 -8 0 -16 5 -18 10 -2 6
-10 2 -19 -8z"/>
<path d="M4645 7140 c-3 -5 -1 -10 4 -10 6 0 11 5 11 10 0 6 -2 10 -4 10 -3 0
-8 -4 -11 -10z"/>
<path d="M4670 7141 c0 -5 5 -13 10 -16 6 -3 10 -2 10 4 0 5 -4 13 -10 16 -5
3 -10 2 -10 -4z"/>
<path d="M4730 7120 c0 -5 5 -10 11 -10 5 0 7 5 4 10 -3 6 -8 10 -11 10 -2 0
-4 -4 -4 -10z"/>
<path d="M4690 7102 c0 -5 7 -9 15 -9 8 0 15 4 15 9 0 4 -7 8 -15 8 -8 0 -15
-4 -15 -8z"/>
<path d="M4850 6899 c0 -5 5 -7 10 -4 6 3 10 8 10 11 0 2 -4 4 -10 4 -5 0 -10
-5 -10 -11z"/>
<path d="M5016 6737 c3 -10 9 -15 12 -12 3 3 0 11 -7 18 -10 9 -11 8 -5 -6z"/>
<path d="M5170 6569 c0 -5 5 -7 10 -4 6 3 10 8 10 11 0 2 -4 4 -10 4 -5 0 -10
-5 -10 -11z"/>
<path d="M5235 6560 c-4 -6 -11 -8 -16 -5 -5 3 -6 -1 -2 -10 5 -13 7 -14 14
-3 6 9 9 6 9 -11 0 -29 5 -25 14 12 6 26 -6 38 -19 17z"/>
<path d="M5247 6463 c-4 -3 -7 -11 -7 -17 0 -6 5 -5 12 2 6 6 9 14 7 17 -3 3
-9 2 -12 -2z"/>
<path d="M5447 6373 c-13 -12 -7 -22 8 -17 11 5 13 2 9 -10 -3 -9 -4 -16 -1
-16 3 0 7 6 10 14 6 16 -16 40 -26 29z"/>
<path d="M5500 6295 c-8 -9 -8 -15 -2 -15 12 0 26 19 19 26 -2 2 -10 -2 -17
-11z"/>
<path d="M5803 6084 c9 -3 15 -9 12 -14 -3 -5 0 -12 6 -15 7 -5 10 0 7 11 -2
10 -12 20 -23 21 -16 1 -16 1 -2 -3z"/>
<path d="M5980 6021 c0 -6 4 -12 8 -15 5 -3 9 1 9 9 0 8 -4 15 -9 15 -4 0 -8
-4 -8 -9z"/>
<path d="M6340 5896 c0 -2 6 -9 13 -15 10 -8 14 -7 14 4 0 8 -6 15 -14 15 -7
0 -13 -2 -13 -4z"/>
<path d="M6342 5850 c0 -14 2 -19 5 -12 2 6 2 18 0 25 -3 6 -5 1 -5 -13z"/>
<path d="M6362 5845 c4 -4 3 -14 -3 -22 -7 -8 -8 -13 -1 -13 15 0 23 28 9 36
-7 4 -9 4 -5 -1z"/>
<path d="M6430 5830 c0 -6 -4 -8 -10 -5 -5 3 -10 1 -10 -4 0 -13 27 -14 35 -2
3 5 1 12 -5 16 -5 3 -10 1 -10 -5z"/>
<path d="M6520 5785 c-7 -9 -10 -18 -6 -22 3 -3 6 -1 6 5 0 7 7 12 15 12 8 0
15 5 15 10 0 15 -16 12 -30 -5z"/>
<path d="M6840 5570 c0 -5 5 -10 11 -10 5 0 7 5 4 10 -3 6 -8 10 -11 10 -2 0
-4 -4 -4 -10z"/>
<path d="M7060 5455 c-11 -13 -10 -14 4 -9 9 3 16 10 16 15 0 13 -6 11 -20 -6z"/>
<path d="M7110 5460 c-13 -8 -12 -10 3 -10 9 0 17 5 17 10 0 12 -1 12 -20 0z"/>
<path d="M7326 5422 c-19 -4 -23 -67 -5 -78 8 -4 9 3 4 25 -4 20 -3 31 5 31 6
0 8 -5 4 -11 -8 -14 17 -31 31 -20 13 11 46 10 39 -1 -3 -5 -9 -6 -14 -3 -5 3
-11 1 -14 -4 -3 -5 1 -11 9 -15 8 -3 17 -1 21 5 4 6 11 6 20 -2 8 -6 17 -9 21
-6 3 4 11 3 17 -3 8 -6 13 0 14 21 1 17 3 36 5 42 2 12 -119 26 -157 19z m139
-22 c3 -5 1 -10 -4 -10 -6 0 -11 5 -11 10 0 6 2 10 4 10 3 0 8 -4 11 -10z m2
-35 c0 -6 -8 -11 -18 -11 -10 0 -20 5 -22 11 -3 5 5 10 18 10 12 0 22 -5 22
-10z"/>
<path d="M7280 5410 c0 -5 5 -10 10 -10 6 0 10 5 10 10 0 6 -4 10 -10 10 -5 0
-10 -4 -10 -10z"/>
<path d="M7240 5402 c0 -5 7 -9 15 -9 8 0 15 4 15 9 0 4 -7 8 -15 8 -8 0 -15
-4 -15 -8z"/>
<path d="M7410 5330 c0 -5 5 -10 11 -10 5 0 7 5 4 10 -3 6 -8 10 -11 10 -2 0
-4 -4 -4 -10z"/>
<path d="M7501 5335 c0 -19 28 -47 41 -42 11 4 11 6 0 6 -8 1 -10 6 -6 14 4 6
4 9 -1 5 -4 -4 -14 0 -21 10 -7 9 -13 13 -13 7z"/>
<path d="M7430 5300 c-8 -5 -12 -12 -9 -15 4 -3 12 1 19 10 14 17 11 19 -10 5z"/>
<path d="M7465 5270 c3 -5 8 -10 11 -10 2 0 4 5 4 10 0 6 -5 10 -11 10 -5 0
-7 -4 -4 -10z"/>
<path d="M7540 5270 c0 -5 5 -10 11 -10 5 0 7 5 4 10 -3 6 -8 10 -11 10 -2 0
-4 -4 -4 -10z"/>
<path d="M7750 5200 c0 -11 4 -20 8 -20 4 0 8 9 9 20 1 11 -2 20 -8 20 -5 0
-9 -9 -9 -20z"/>
<path d="M7774 5151 c3 -5 15 -7 26 -4 28 7 25 13 -6 13 -14 0 -23 -4 -20 -9z"/>
<path d="M7890 5151 c0 -6 10 -8 21 -6 33 6 36 15 6 15 -15 0 -27 -4 -27 -9z"/>
<path d="M8000 5099 c0 -5 5 -7 10 -4 6 3 10 8 10 11 0 2 -4 4 -10 4 -5 0 -10
-5 -10 -11z"/>
<path d="M7788 5093 c6 -2 18 -2 25 0 6 3 1 5 -13 5 -14 0 -19 -2 -12 -5z"/>
<path d="M8040 5050 c0 -5 5 -10 11 -10 5 0 7 5 4 10 -3 6 -8 10 -11 10 -2 0
-4 -4 -4 -10z"/>
<path d="M8051 5021 c-8 -5 -9 -11 -3 -15 5 -3 12 1 16 9 6 17 6 18 -13 6z"/>
<path d="M8197 4954 c2 -6 11 -11 18 -10 26 4 26 13 1 18 -16 3 -23 1 -19 -8z"/>
<path d="M8495 4902 c-1 -1 -23 -3 -49 -4 -25 0 -46 -2 -46 -5 0 -2 9 -14 20
-25 14 -15 16 -24 9 -29 -6 -4 -9 -11 -5 -17 3 -6 1 -14 -5 -18 -8 -4 -9 -3
-5 4 4 7 2 12 -3 12 -6 0 -11 -7 -11 -15 0 -19 14 -19 29 -2 6 8 21 13 33 12
13 -1 30 3 38 9 8 5 12 7 8 2 -4 -5 -2 -18 3 -29 8 -15 8 -22 -2 -28 -10 -6
-7 -8 9 -6 12 0 22 7 22 14 0 7 7 10 15 7 8 -4 15 -14 15 -23 0 -11 -3 -12 -8
-4 -5 8 -11 8 -25 -2 -16 -12 -16 -13 0 -26 11 -9 14 -10 9 -1 -4 6 -3 12 3
12 5 0 13 -4 16 -10 3 -5 15 -10 26 -10 10 0 19 -5 19 -11 0 -5 -6 -7 -12 -3
-10 5 -10 4 -1 -6 21 -22 26 -5 30 104 l5 105 -67 -2 c-37 -1 -68 -3 -70 -5z
m-21 -74 c-3 -4 -9 -8 -15 -8 -5 0 -9 4 -9 8 0 5 7 9 15 9 8 0 12 -4 9 -9z"/>
<path d="M8309 4886 l24 -13 -22 -15 c-20 -14 -20 -16 -4 -22 9 -4 14 -4 10 0
-12 12 13 33 31 26 14 -5 14 -3 -2 13 -10 11 -28 20 -40 22 -19 2 -19 2 3 -11z"/>
<path d="M8400 4855 c0 -8 4 -15 10 -15 5 0 7 7 4 15 -4 8 -8 15 -10 15 -2 0
-4 -7 -4 -15z"/>
<path d="M8460 4790 c-9 -6 -10 -10 -3 -10 6 0 15 5 18 10 8 12 4 12 -15 0z"/>
<path d="M8720 4635 c0 -8 5 -15 11 -15 5 0 7 5 4 10 -3 6 -1 10 4 10 14 0 14
-13 0 -27 -9 -9 -8 -11 4 -9 9 1 20 5 23 9 11 10 24 8 24 -4 0 -5 -6 -7 -12
-3 -16 9 11 -26 31 -42 7 -6 24 -9 37 -6 18 3 24 0 24 -13 0 -15 -2 -16 -17
-4 -15 13 -15 12 -4 -9 6 -12 10 -26 7 -31 -3 -4 1 -8 8 -8 10 0 14 21 15 79
l2 78 -81 0 c-64 0 -80 -3 -80 -15z m101 -52 c13 -16 12 -17 -3 -4 -10 7 -18
15 -18 17 0 8 8 3 21 -13z"/>
<path d="M8787 4549 c7 -7 15 -10 18 -7 3 3 -2 9 -12 12 -14 6 -15 5 -6 -5z"/>
<path d="M8856 4471 c-3 -5 1 -11 9 -15 9 -3 15 0 15 9 0 16 -16 20 -24 6z"/>
<path d="M8828 4443 c6 -2 18 -2 25 0 6 3 1 5 -13 5 -14 0 -19 -2 -12 -5z"/>
<path d="M9048 4379 c-6 -4 -1 -10 11 -14 26 -8 27 -21 4 -34 -14 -8 -11 -9
15 -6 28 3 33 1 28 -13 -5 -14 -3 -13 9 2 8 10 13 28 10 40 -2 12 -4 23 -4 26
-1 8 -61 6 -73 -1z"/>
<path d="M14694 4272 c15 -6 -1 -14 -64 -32 -46 -13 -78 -26 -72 -28 20 -6
163 40 159 52 -2 6 -12 12 -23 13 -19 3 -19 3 0 -5z"/>
<path d="M14582 4248 c-35 -11 -61 -22 -59 -24 2 -3 37 6 78 20 41 13 67 24
59 24 -8 0 -43 -9 -78 -20z"/>
<path d="M14640 4219 c-37 -11 -78 -17 -95 -13 -23 4 -26 3 -15 -5 12 -9 9
-11 -15 -11 -49 0 -239 -52 -252 -68 -8 -9 -13 -11 -13 -4 0 17 -39 8 -364
-77 -133 -35 -136 -36 -136 -58 0 -11 6 -14 27 -8 15 3 79 17 142 30 64 14
167 37 230 53 77 19 107 24 95 14 -18 -14 -18 -14 1 -7 11 4 122 28 248 53
l227 46 0 38 c0 21 -3 38 -7 37 -5 0 -37 -9 -73 -20z"/>
<path d="M14441 4209 c-62 -18 -78 -25 -70 -33 4 -4 130 33 138 40 12 11 -10
9 -68 -7z"/>
<path d="M14208 4143 c6 -2 18 -2 25 0 6 3 1 5 -13 5 -14 0 -19 -2 -12 -5z"/>
<path d="M14615 4124 c-134 -36 -343 -82 -495 -109 -182 -32 -354 -68 -540
-116 -85 -21 -240 -59 -345 -83 -104 -25 -235 -56 -290 -69 -55 -13 -137 -32
-182 -42 -46 -10 -83 -23 -83 -28 0 -5 8 -6 17 -3 9 4 38 9 63 12 36 3 33 1
-20 -11 -36 -8 -76 -19 -90 -24 -14 -6 -74 -22 -135 -36 -121 -28 -207 -55
-216 -68 -3 -4 -10 -7 -15 -6 -17 4 -74 -23 -68 -32 3 -5 3 -9 1 -9 -2 0 -89
-30 -193 -66 -104 -36 -225 -77 -269 -91 -44 -14 -84 -28 -90 -32 -5 -4 -29
-13 -52 -21 -23 -7 -40 -17 -37 -21 3 -5 -2 -9 -11 -9 -27 0 -149 -51 -162
-68 -11 -13 -13 -13 -13 -1 -1 9 -7 7 -19 -8 -11 -13 -22 -23 -25 -23 -3 0
-22 -11 -42 -25 -20 -14 -33 -25 -29 -25 4 0 2 -6 -5 -14 -6 -8 -17 -13 -24
-10 -7 3 -30 -11 -51 -31 -22 -19 -44 -35 -51 -35 -7 0 -20 -7 -28 -16 -9 -8
-16 -12 -16 -7 0 4 -4 3 -8 -3 -6 -11 -184 -104 -197 -104 -4 0 -3 5 1 11 4 8
0 8 -15 0 -24 -13 -28 -23 -6 -15 8 4 15 1 15 -5 0 -6 -6 -11 -12 -11 -10 0
-10 -2 0 -9 11 -7 11 -9 -2 -14 -9 -4 -16 -2 -16 4 0 9 -98 -37 -110 -52 -3
-3 -23 -16 -45 -28 -37 -21 -36 -21 13 -5 14 5 14 3 -2 -10 -11 -9 -23 -16
-28 -16 -4 0 -8 -4 -8 -9 0 -5 21 2 46 16 31 17 42 28 33 33 -8 5 6 17 42 35
36 19 49 22 40 11 -16 -19 -9 -20 22 -5 21 10 21 9 3 -5 -11 -9 -29 -13 -42
-10 -12 3 -25 1 -28 -5 -4 -6 -1 -11 6 -11 7 0 -6 -12 -30 -26 -23 -14 -40
-29 -37 -34 3 -5 0 -12 -6 -16 -8 -4 -7 -9 2 -15 7 -4 10 -11 6 -16 -5 -4 -12
-1 -17 7 -8 13 -10 13 -10 1 0 -8 -3 -11 -7 -8 -3 4 2 17 13 28 13 15 14 20 4
15 -8 -3 -23 -9 -32 -12 -19 -7 -25 -24 -8 -24 6 0 10 -5 10 -11 0 -6 -6 -9
-14 -6 -16 6 -56 -28 -55 -46 0 -9 2 -9 5 0 3 7 11 10 19 7 7 -3 16 -1 20 5 4
7 -1 9 -12 5 -12 -4 -14 -3 -6 3 7 5 28 8 47 8 19 -1 33 2 30 7 -4 5 0 9 7 7
32 -4 50 1 43 13 -4 6 -3 8 4 4 10 -6 130 44 581 239 184 79 341 139 347 132
3 -3 -5 -8 -18 -12 -45 -14 -325 -134 -503 -215 -99 -45 -225 -102 -280 -127
-55 -25 -104 -49 -109 -54 -20 -18 90 -2 132 20 53 27 565 232 569 227 2 -1
-25 -15 -59 -29 -390 -162 -548 -232 -548 -241 0 -3 12 -1 28 4 l27 10 -25
-20 -25 -19 24 4 c14 3 28 10 32 16 4 7 9 8 13 1 3 -5 -17 -19 -45 -32 -28
-12 -49 -23 -47 -25 2 -2 118 45 257 105 139 61 256 110 260 110 12 -1 -34
-24 -188 -92 -278 -124 -444 -203 -401 -191 14 4 38 8 53 9 16 1 31 6 35 10 4
4 -1 4 -10 1 -10 -4 -18 -2 -18 3 0 6 4 10 9 10 5 0 17 3 27 7 11 4 15 3 11
-4 -5 -7 0 -9 13 -6 28 8 35 22 8 16 -19 -4 -20 -3 -8 6 8 6 27 8 41 5 16 -3
32 1 40 9 8 7 20 12 26 10 7 -3 57 18 112 45 56 27 98 45 94 39 -4 -6 4 -8 21
-3 18 4 25 3 22 -3 -4 -6 41 13 99 41 59 27 109 48 112 45 3 -3 -86 -51 -198
-106 -112 -56 -215 -108 -229 -116 -46 -28 -377 -185 -388 -185 -7 0 -12 -5
-12 -11 0 -5 -4 -8 -8 -5 -11 6 -132 -50 -132 -61 0 -12 -80 -45 -112 -47 -14
0 -24 -4 -21 -8 2 -5 -9 -8 -26 -8 -16 0 -32 -4 -35 -9 -3 -5 11 -8 31 -6 28
2 30 1 8 -3 l-30 -5 25 -8 c18 -6 13 -7 -20 -4 -25 2 -36 1 -25 -2 17 -5 15
-8 -15 -18 -23 -8 -34 -18 -32 -29 2 -11 -5 -16 -25 -17 -25 0 -26 -1 -8 -9
18 -8 17 -9 -7 -9 -16 -1 -27 -6 -25 -13 1 -7 -11 -15 -28 -19 -21 -5 -7 -7
45 -8 52 -1 70 -4 60 -11 -13 -8 -13 -10 2 -10 12 0 15 -5 11 -17 -5 -12 -3
-14 7 -8 10 6 12 4 7 -9 -4 -11 -3 -15 4 -11 6 4 8 13 5 20 -2 7 2 16 10 19 9
3 12 1 9 -4 -4 -6 9 -9 34 -7 22 2 38 0 35 -5 -3 -4 2 -8 10 -8 15 0 21 -12
17 -33 -1 -5 6 -4 15 1 9 5 26 7 38 5 17 -4 18 -3 6 6 -8 5 -11 13 -7 17 3 4
13 2 20 -5 11 -8 25 -7 58 4 24 9 80 24 124 35 132 31 375 65 295 41 -37 -11
-294 -160 -409 -236 -54 -36 -142 -102 -197 -148 -54 -46 -129 -98 -166 -117
-37 -19 -66 -36 -63 -38 2 -2 18 3 36 12 18 9 33 15 35 13 4 -4 -43 -42 -57
-45 -7 -2 -17 -9 -23 -16 -6 -8 -20 -19 -31 -25 -18 -11 -18 -11 5 -6 33 9
-50 -66 -164 -148 -133 -96 -339 -184 -410 -175 -11 1 -25 0 -31 -4 -15 -9
-138 -12 -157 -4 -10 5 -40 6 -68 4 -27 -1 -50 0 -50 5 0 4 -5 7 -11 7 -5 0
-8 -3 -6 -7 3 -5 -45 -7 -106 -7 -114 2 -146 -3 -111 -17 35 -14 423 -10 524
6 234 35 413 140 705 415 160 150 403 329 417 307 4 -6 4 -15 1 -21 -4 -5 -1
-6 6 -2 7 5 10 15 7 23 -3 8 -2 12 3 9 4 -3 17 1 27 9 25 19 34 19 34 -1 0 -9
-6 -14 -13 -11 -18 7 -47 -12 -30 -19 7 -3 9 -12 6 -20 -3 -8 1 -14 11 -14 9
0 16 -4 16 -10 0 -5 8 -10 18 -10 16 1 16 1 0 14 -26 20 -22 29 11 23 15 -3
33 -1 40 6 8 8 14 8 24 -2 10 -10 9 -11 -3 -6 -11 4 -15 -1 -15 -18 0 -18 4
-22 22 -19 17 3 25 -4 39 -35 9 -21 20 -42 22 -47 3 -5 0 -6 -6 -2 -7 4 -20 2
-29 -3 -10 -6 -16 -11 -13 -12 41 -9 64 -8 71 3 7 10 9 10 9 -3 0 -8 -5 -20
-12 -27 -9 -9 -8 -12 4 -12 26 0 29 -15 3 -16 -15 -1 -25 5 -28 17 -3 11 -11
19 -19 18 -10 0 -10 -2 0 -6 6 -2 12 -13 12 -24 0 -10 5 -19 11 -19 5 0 7 -4
4 -10 -3 -5 1 -10 9 -10 19 0 40 -36 26 -45 -17 -10 -11 -23 8 -18 12 3 22 -4
30 -21 7 -16 8 -26 2 -26 -6 0 -10 8 -10 18 0 14 -2 15 -10 2 -7 -11 -3 -18
15 -27 19 -10 22 -19 19 -45 -3 -22 -2 -28 4 -20 8 11 10 11 15 -2 3 -8 1 -17
-6 -20 -9 -3 -9 -5 1 -5 6 -1 12 -8 12 -17 0 -8 5 -12 10 -9 19 12 10 -14 -12
-34 l-21 -20 22 4 c17 3 21 0 17 -10 -3 -9 0 -12 10 -8 7 3 14 0 14 -5 0 -6
-9 -14 -21 -17 -16 -5 -18 -10 -10 -18 9 -9 14 -8 21 3 7 11 10 11 10 2 0 -7
5 -10 10 -7 6 3 10 2 10 -3 0 -5 -10 -14 -22 -20 -13 -6 -18 -11 -11 -11 7 -1
10 -8 6 -17 -5 -14 -1 -15 26 -9 31 7 32 6 20 -14 -10 -14 -16 -17 -21 -8 -6
9 -10 9 -15 1 -5 -6 -15 -14 -23 -18 -8 -3 -5 -4 8 -2 17 3 24 -2 28 -20 3
-13 10 -24 14 -24 10 0 8 -20 -4 -39 -7 -11 -5 -13 9 -7 14 5 16 4 7 -7 -9
-10 -8 -17 0 -25 9 -9 8 -12 -3 -12 -8 0 -21 6 -28 13 -10 10 -10 7 -2 -14 5
-15 7 -30 4 -33 -4 -3 3 -6 15 -6 15 0 22 -6 22 -20 0 -11 -4 -20 -10 -20 -5
0 -10 -5 -10 -11 0 -5 4 -8 9 -5 12 8 21 -30 9 -42 -6 -6 -1 -8 15 -5 14 3 28
0 31 -6 4 -7 1 -9 -8 -5 -11 4 -13 0 -9 -15 3 -12 10 -21 17 -21 6 0 4 -5 -4
-10 -20 -13 -33 -13 -24 1 4 8 0 8 -15 0 -25 -14 -26 -18 -6 -37 14 -14 19
-11 16 9 0 4 5 7 13 7 9 0 12 -7 9 -20 -3 -11 -9 -20 -13 -20 -5 0 -6 -9 -3
-20 3 -11 9 -18 13 -15 5 3 12 0 16 -6 4 -8 3 -9 -4 -5 -7 4 -12 2 -12 -3 0
-6 -7 -11 -15 -11 -22 0 -35 -31 -19 -48 19 -18 18 -36 -1 -28 -15 6 -19 -2
-17 -41 1 -21 -11 -28 -39 -25 -3 1 -4 -11 -2 -26 3 -23 2 -24 -6 -7 -8 17
-10 18 -10 3 -1 -10 -5 -18 -10 -18 -5 0 -12 -7 -15 -16 -5 -13 -4 -14 7 -5
11 8 16 5 25 -15 15 -31 15 -34 1 -34 -5 0 -8 4 -4 9 9 15 -13 23 -32 12 -17
-10 -17 -10 0 -11 11 0 17 -8 17 -25 0 -19 4 -23 18 -19 14 5 15 4 2 -5 -13
-10 -13 -13 3 -25 18 -14 24 -32 7 -21 -6 3 -13 -2 -17 -12 -4 -10 -11 -21
-17 -25 -6 -4 0 -8 14 -8 19 0 22 -2 10 -9 -8 -6 -18 -7 -22 -5 -4 3 -8 -2 -8
-11 0 -9 5 -13 10 -10 6 3 10 1 10 -4 0 -6 -4 -11 -10 -11 -5 0 -10 -5 -10
-12 0 -9 3 -9 12 0 21 21 36 14 30 -14 -3 -16 -9 -23 -18 -20 -8 3 -14 1 -14
-4 0 -6 8 -10 18 -11 9 0 12 -3 6 -5 -7 -3 -10 -13 -7 -23 4 -15 0 -18 -19
-16 -12 1 -15 0 -5 -2 9 -2 17 -9 17 -15 0 -6 -9 -8 -21 -5 -15 4 -18 2 -10
-7 7 -9 7 -16 -1 -24 -8 -8 -5 -9 11 -5 16 4 21 1 21 -13 0 -14 -2 -16 -9 -6
-7 11 -9 11 -14 -2 -4 -9 1 -16 11 -19 9 -3 -3 -6 -28 -7 -42 -2 -43 -3 -15
-10 17 -4 873 -8 1903 -9 l1872 -1 0 1830 c0 1007 -3 1830 -7 1830 -5 0 -66
-7 -138 -16 -272 -32 -437 -44 -645 -49 -278 -6 -218 8 125 29 143 9 347 25
454 36 107 11 198 20 203 20 4 0 8 32 8 70 0 48 -4 70 -12 70 -9 0 -9 3 0 12
7 7 12 27 12 45 0 29 -3 33 -22 28 -60 -13 -367 -59 -573 -86 -44 -5 -98 -14
-120 -19 -69 -15 -172 -22 -178 -13 -6 9 232 50 453 78 63 8 186 24 273 35 87
11 160 20 162 20 3 0 5 20 5 45 0 42 -2 45 -22 41 -51 -11 -251 -46 -373 -65
-133 -21 -253 -42 -385 -67 -41 -7 -181 -30 -310 -49 -129 -20 -298 -47 -375
-61 -77 -13 -207 -36 -288 -50 -82 -14 -151 -24 -153 -21 -3 3 12 8 33 11 21
4 175 34 343 67 277 55 859 157 1020 179 36 5 128 19 205 30 77 11 177 25 223
32 l82 12 0 63 c0 35 -3 63 -7 62 -5 0 -48 -12 -98 -25z m-868 -231 c-3 -10
-5 -4 -5 12 0 17 2 24 5 18 2 -7 2 -21 0 -30z m931 -68 c-3 -3 -88 -20 -189
-36 -101 -17 -193 -33 -204 -35 -11 -2 -83 -12 -160 -23 -77 -10 -180 -26
-230 -35 -121 -20 -238 -33 -430 -46 -88 -6 -243 -20 -343 -31 -101 -11 -186
-18 -190 -15 -3 3 -1 6 4 6 5 0 52 7 104 15 163 26 318 44 515 60 163 13 726
86 995 129 94 15 136 19 128 11z m-1311 -81 c-3 -3 -12 -4 -19 -1 -8 3 -5 6 6
6 11 1 17 -2 13 -5z m-60 -10 c-3 -3 -12 -4 -19 -1 -8 3 -5 6 6 6 11 1 17 -2
13 -5z m-57 -8 c0 -2 -9 -6 -20 -9 -11 -3 -18 -1 -14 4 5 9 34 13 34 5z
m-2239 -802 c-35 -19 -65 -33 -68 -30 -5 5 106 65 122 65 6 1 -19 -15 -54 -35z
m549 -4 c-8 -5 -19 -10 -25 -10 -5 0 -3 5 5 10 8 5 20 10 25 10 6 0 3 -5 -5
-10z m-565 -30 c-3 -5 -12 -10 -18 -10 -7 0 -6 4 3 10 19 12 23 12 15 0z m-74
-14 c-9 -11 -9 -15 1 -18 8 -3 7 -6 -4 -10 -9 -4 -15 -2 -14 5 2 15 16 37 23
37 3 0 0 -6 -6 -14z m509 -86 c-8 -5 -19 -10 -25 -10 -5 0 -3 5 5 10 8 5 20
10 25 10 6 0 3 -5 -5 -10z m-440 -220 c-8 -5 -19 -10 -25 -10 -5 0 -3 5 5 10
8 5 20 10 25 10 6 0 3 -5 -5 -10z m-670 -444 c0 -2 -7 -7 -16 -10 -8 -3 -12
-2 -9 4 6 10 25 14 25 6z m405 -246 c3 -5 -1 -10 -10 -10 -9 0 -13 5 -10 10 3
6 8 10 10 10 2 0 7 -4 10 -10z m102 -102 c-3 -8 -6 -5 -6 6 -1 11 2 17 5 13 3
-3 4 -12 1 -19z m-582 -228 c-3 -5 -11 -10 -16 -10 -6 0 -7 5 -4 10 3 6 11 10
16 10 6 0 7 -4 4 -10z m696 -23 c-10 -9 -11 -8 -5 6 3 10 9 15 12 12 3 -3 0
-11 -7 -18z m-771 -40 c0 -2 -10 -12 -22 -23 l-23 -19 19 23 c18 21 26 27 26
19z m850 -91 c0 -3 -4 -8 -10 -11 -5 -3 -10 -1 -10 4 0 6 5 11 10 11 6 0 10
-2 10 -4z m74 -261 c-4 -8 -8 -15 -10 -15 -2 0 -4 7 -4 15 0 8 4 15 10 15 5 0
7 -7 4 -15z m-1796 -32 c-10 -2 -26 -2 -35 0 -10 3 -2 5 17 5 19 0 27 -2 18
-5z m1787 -3 c3 -5 2 -10 -4 -10 -5 0 -13 5 -16 10 -3 6 -2 10 4 10 5 0 13 -4
16 -10z m13 -45 c0 -23 -2 -24 -13 -8 -11 15 -6 31 11 33 1 0 2 -11 2 -25z
m12 -145 c0 -5 -4 -10 -10 -10 -5 0 -10 5 -10 10 0 6 5 10 10 10 6 0 10 -4 10
-10z m27 -304 c0 -8 -5 -14 -11 -13 -6 1 -10 -4 -8 -10 1 -7 -2 -13 -8 -13 -5
0 -10 -7 -10 -15 0 -16 -9 -19 -27 -7 -8 5 -9 13 -3 22 6 8 10 12 10 8 0 -4
11 4 25 17 28 29 32 30 32 11z m-102 -156 c3 -5 1 -10 -4 -10 -6 0 -11 5 -11
10 0 6 2 10 4 10 3 0 8 -4 11 -10z m-2 -154 c4 -10 1 -13 -9 -9 -7 3 -14 9
-14 14 0 14 17 10 23 -5z"/>
<path d="M14168 4133 c7 -3 16 -2 19 1 4 3 -2 6 -13 5 -11 0 -14 -3 -6 -6z"/>
<path d="M14068 4113 c7 -3 16 -2 19 1 4 3 -2 6 -13 5 -11 0 -14 -3 -6 -6z"/>
<path d="M13920 4080 c-20 -6 -21 -8 -5 -8 11 0 29 3 40 8 25 11 -1 11 -35 0z"/>
<path d="M13768 4073 c7 -3 16 -2 19 1 4 3 -2 6 -13 5 -11 0 -14 -3 -6 -6z"/>
<path d="M9360 4055 c0 -8 4 -15 10 -15 5 0 7 7 4 15 -4 8 -8 15 -10 15 -2 0
-4 -7 -4 -15z"/>
<path d="M13705 4060 c-13 -6 -15 -9 -5 -9 8 0 22 4 30 9 18 12 2 12 -25 0z"/>
<path d="M13828 4053 c7 -3 16 -2 19 1 4 3 -2 6 -13 5 -11 0 -14 -3 -6 -6z"/>
<path d="M14198 4053 c7 -3 16 -2 19 1 4 3 -2 6 -13 5 -11 0 -14 -3 -6 -6z"/>
<path d="M13765 4040 c-19 -8 -19 -9 3 -9 12 -1 22 4 22 9 0 6 -1 10 -2 9 -2
0 -12 -4 -23 -9z"/>
<path d="M13690 4024 c-25 -7 -56 -17 -70 -23 -24 -11 -24 -11 5 -5 17 4 47
10 68 14 36 7 55 17 46 23 -2 2 -24 -2 -49 -9z"/>
<path d="M14118 4033 c7 -3 16 -2 19 1 4 3 -2 6 -13 5 -11 0 -14 -3 -6 -6z"/>
<path d="M0 4020 c0 -21 367 -94 580 -115 150 -15 726 -19 925 -6 55 3 -114 6
-375 6 -336 0 -503 4 -570 13 -124 17 -338 57 -462 86 -54 13 -98 20 -98 16z"/>
<path d="M13600 3965 c-69 -18 -188 -49 -265 -69 -77 -20 -151 -41 -165 -46
-14 -4 -58 -18 -97 -31 -40 -12 -71 -24 -69 -26 4 -5 340 72 563 128 141 36
173 47 173 62 0 21 11 22 -140 -18z"/>
<path d="M9430 3986 c0 -2 9 -6 20 -9 11 -3 20 -1 20 4 0 5 -9 9 -20 9 -11 0
-20 -2 -20 -4z"/>
<path d="M13498 3965 c-2 -3 -23 -6 -46 -7 -23 -1 -42 -5 -42 -9 0 -5 -7 -6
-15 -3 -8 3 -22 -1 -30 -10 -19 -19 -7 -20 32 -5 15 7 44 14 63 16 19 2 39 8
45 14 5 5 7 9 4 9 -3 0 -8 -2 -11 -5z"/>
<path d="M9475 3950 c3 -5 8 -10 11 -10 2 0 4 5 4 10 0 6 -5 10 -11 10 -5 0
-7 -4 -4 -10z"/>
<path d="M1798 3923 c23 -2 61 -2 85 0 23 2 4 4 -43 4 -47 0 -66 -2 -42 -4z"/>
<path d="M13315 3920 c-19 -8 -19 -9 3 -9 12 -1 22 4 22 9 0 6 -1 10 -2 9 -2
0 -12 -4 -23 -9z"/>
<path d="M1648 3913 c18 -2 45 -2 60 0 15 2 0 4 -33 4 -33 0 -45 -2 -27 -4z"/>
<path d="M13238 3893 c7 -3 16 -2 19 1 4 3 -2 6 -13 5 -11 0 -14 -3 -6 -6z"/>
<path d="M9560 3866 c14 -8 27 -12 29 -10 6 6 -1 11 -29 18 l-25 7 25 -15z"/>
<path d="M13178 3873 c7 -3 16 -2 19 1 4 3 -2 6 -13 5 -11 0 -14 -3 -6 -6z"/>
<path d="M2318 3843 c6 -2 18 -2 25 0 6 3 1 5 -13 5 -14 0 -19 -2 -12 -5z"/>
<path d="M2368 3843 c7 -3 16 -2 19 1 4 3 -2 6 -13 5 -11 0 -14 -3 -6 -6z"/>
<path d="M13078 3843 c7 -3 16 -2 19 1 4 3 -2 6 -13 5 -11 0 -14 -3 -6 -6z"/>
<path d="M9618 3821 c8 -4 13 -11 13 -15 -3 -23 1 -28 10 -13 12 21 4 37 -19
37 -13 0 -14 -2 -4 -9z"/>
<path d="M12915 3789 c-46 -15 -51 -18 -20 -13 22 3 53 12 70 19 42 19 21 16
-50 -6z"/>
<path d="M12708 3763 c7 -3 16 -2 19 1 4 3 -2 6 -13 5 -11 0 -14 -3 -6 -6z"/>
<path d="M12828 3763 c7 -3 16 -2 19 1 4 3 -2 6 -13 5 -11 0 -14 -3 -6 -6z"/>
<path d="M1953 3753 c15 -2 37 -2 50 0 12 2 0 4 -28 4 -27 0 -38 -2 -22 -4z"/>
<path d="M2760 3746 c0 -3 9 -10 20 -16 11 -6 20 -8 20 -6 0 3 -9 10 -20 16
-11 6 -20 8 -20 6z"/>
<path d="M12648 3723 c7 -3 16 -2 19 1 4 3 -2 6 -13 5 -11 0 -14 -3 -6 -6z"/>
<path d="M2814 3711 c7 -11 46 -35 46 -28 0 3 -12 12 -26 22 -15 9 -23 12 -20
6z"/>
<path d="M2618 3693 c7 -3 16 -2 19 1 4 3 -2 6 -13 5 -11 0 -14 -3 -6 -6z"/>
<path d="M2758 3673 c7 -3 16 -2 19 1 4 3 -2 6 -13 5 -11 0 -14 -3 -6 -6z"/>
<path d="M2805 3662 c31 -14 83 -24 65 -13 -8 5 -31 11 -50 15 -24 4 -28 3
-15 -2z"/>
<path d="M2898 3650 c36 -22 43 -36 10 -20 -22 11 -22 10 -4 -4 11 -9 29 -16
40 -16 10 0 16 -3 13 -7 -4 -3 -2 -12 4 -20 9 -10 8 -13 0 -13 -21 0 -2 -17
24 -22 13 -3 22 -1 19 3 -3 5 -11 9 -18 9 -7 0 -13 6 -13 14 0 9 17 3 53 -18
29 -17 48 -33 43 -34 -5 -2 -16 1 -24 8 -9 7 -20 8 -30 3 -11 -7 2 -13 47 -23
35 -7 67 -12 71 -11 5 1 6 -3 2 -8 -4 -7 -15 -7 -32 0 -42 16 -37 4 8 -16 33
-15 37 -20 23 -25 -16 -6 -16 -7 4 -12 14 -4 20 -2 15 5 -4 7 0 8 11 4 10 -4
20 -7 22 -7 3 0 3 -4 -1 -9 -8 -14 30 -32 52 -25 13 4 14 3 5 -3 -9 -7 -6 -12
13 -21 14 -7 24 -16 21 -21 -8 -12 25 -24 36 -13 12 12 -109 115 -123 106 -7
-4 -9 -3 -5 4 8 13 -172 146 -197 145 -9 -1 -15 2 -12 6 2 5 -3 15 -12 22 -12
10 -14 10 -9 2 4 -7 2 -13 -3 -13 -6 0 -11 4 -11 10 0 5 -13 16 -30 25 -42 22
-51 18 -12 -5z m267 -181 c-3 -4 -12 -6 -20 -3 -8 4 -13 10 -10 15 3 4 12 6
20 3 8 -4 13 -10 10 -15z"/>
<path d="M9816 3642 c-3 -4 4 -9 15 -9 23 -2 25 3 4 10 -8 4 -16 3 -19 -1z"/>
<path d="M12190 3600 c-13 -8 -13 -10 2 -10 9 0 20 5 23 10 8 13 -5 13 -25 0z"/>
<path d="M2866 3591 c9 -9 83 -27 74 -18 -3 3 -23 10 -44 16 -22 5 -35 6 -30
2z"/>
<path d="M9870 3540 c-9 -6 -10 -10 -3 -10 6 0 15 5 18 10 8 12 4 12 -15 0z"/>
<path d="M9913 3532 c1 -14 5 -18 11 -12 7 7 6 14 -1 21 -9 9 -12 7 -10 -9z"/>
<path d="M9900 3462 c0 -12 3 -12 15 -2 8 7 15 13 15 15 0 1 -7 2 -15 2 -8 0
-15 -7 -15 -15z"/>
<path d="M1535 3443 c-11 -3 -191 -61 -400 -130 -329 -108 -561 -196 -788
-296 -51 -23 -56 -24 -47 -7 14 26 13 33 -6 26 -8 -3 -12 -2 -9 3 3 5 1 12 -5
16 -5 3 -10 1 -10 -6 0 -7 -3 -9 -7 -6 -3 4 -12 -1 -19 -11 -12 -16 -13 -16
-19 1 -4 9 -13 17 -20 17 -7 0 -16 6 -18 13 -4 9 -6 9 -6 0 -1 -7 -8 -10 -18
-6 -10 4 -14 2 -10 -4 4 -6 0 -14 -9 -17 -22 -8 -26 -8 -19 4 4 7 -3 9 -22 5
-15 -3 108 41 274 97 166 56 301 104 299 106 -3 2 -73 -19 -158 -46 -246 -81
-460 -144 -466 -138 -3 3 3 6 13 6 15 0 16 2 4 17 -10 11 -10 14 -2 9 7 -4 13
-3 13 3 0 18 -21 23 -37 9 -14 -11 -16 -11 -8 2 8 13 7 13 -9 1 -9 -8 -15 -20
-12 -27 3 -7 0 -16 -6 -20 -7 -4 -6 -9 3 -15 10 -6 10 -9 2 -9 -10 0 -13 -327
-13 -1520 l0 -1520 2107 2 2108 3 160 79 c382 189 856 406 1035 474 30 12 129
51 220 88 91 36 191 75 223 86 31 11 54 24 51 30 -3 5 -13 7 -21 4 -8 -3 -12
-2 -8 3 3 5 -9 16 -27 25 l-33 16 24 -20 c39 -34 10 -22 -64 24 l-70 45 -80
-78 c-44 -42 -111 -102 -150 -133 -38 -30 -79 -65 -89 -77 -11 -11 -24 -21
-30 -21 -12 0 98 108 197 194 87 74 104 100 86 123 -13 15 -12 15 9 4 18 -10
27 -10 38 0 8 6 14 15 14 20 0 15 -143 117 -157 112 -7 -3 -19 -1 -26 5 -8 7
-18 6 -31 -4 -15 -11 -16 -14 -5 -14 9 0 26 -12 40 -26 l24 -26 -37 22 -37 22
-48 -33 c-26 -18 -52 -37 -58 -41 -53 -42 -322 -228 -330 -228 -3 0 -3 5 1 12
4 7 3 8 -5 4 -6 -4 -9 -11 -6 -16 3 -5 1 -11 -5 -15 -5 -3 -10 -1 -10 4 0 6
-4 11 -10 11 -5 0 -7 -6 -4 -14 7 -17 -38 -46 -73 -46 -22 0 -25 -2 -13 -10
11 -7 7 -10 -17 -10 -17 0 -33 -3 -35 -7 -1 -5 -19 -16 -38 -26 -33 -17 -34
-17 -14 0 12 10 48 37 80 60 33 24 73 55 91 70 17 16 43 37 58 47 14 11 24 25
21 32 -3 7 0 11 7 8 7 -2 27 6 44 19 l32 24 -42 23 c-56 31 -265 173 -302 205
-16 15 -3 8 30 -15 88 -62 213 -142 271 -175 l51 -29 33 21 33 21 -144 96
c-210 142 -466 319 -481 334 -7 8 111 -70 263 -172 355 -238 371 -247 392
-231 20 15 25 10 -93 91 -196 133 -280 189 -429 281 -156 96 -216 138 -131 91
69 -38 449 -276 502 -314 26 -18 53 -32 60 -29 7 3 24 -4 38 -15 14 -11 20
-20 14 -20 -6 0 -17 7 -24 15 -7 8 -18 15 -24 15 -11 -1 15 -24 48 -42 14 -8
17 -7 11 2 -5 8 -3 11 6 8 8 -3 13 -10 12 -15 -1 -5 7 -10 18 -10 18 -2 19 0
7 14 -19 24 -550 373 -658 433 -100 55 -170 100 -170 107 0 3 12 -3 28 -13 15
-10 79 -47 142 -82 63 -36 194 -117 290 -181 185 -122 202 -133 183 -110 -6 8
-11 18 -10 24 1 5 -74 60 -168 122 -188 125 -305 206 -305 210 0 7 40 -18 220
-140 351 -235 376 -252 442 -295 64 -42 123 -59 123 -36 0 13 -201 148 -588
397 -81 53 -358 190 -476 237 -28 11 -79 34 -113 51 -34 17 -85 37 -114 45
-29 7 -95 31 -146 52 -78 32 -161 57 -260 77 -10 2 -18 -1 -18 -6 0 -5 8 -9
19 -9 34 0 314 -98 374 -131 10 -5 21 -7 26 -5 4 3 8 -1 8 -9 0 -12 -4 -12
-26 -1 -75 39 -440 148 -484 145 -7 0 26 -12 73 -25 115 -34 262 -86 257 -91
-3 -2 -46 10 -96 26 -99 33 -292 76 -381 85 -73 7 -45 -2 175 -59 140 -36 341
-99 255 -80 -180 41 -259 59 -335 80 -151 41 -196 49 -205 35 -6 -10 -24 -10
-84 -1 -96 14 -109 13 -71 -5 l30 -15 -30 5 c-16 3 -41 8 -55 11 -22 5 -21 3
5 -10 l30 -15 -40 6 c-98 15 -162 42 -72 31 23 -2 36 -3 30 0 -25 9 -12 19 20
16 27 -3 29 -2 12 7 -15 7 -7 8 28 4 36 -5 47 -3 47 7 0 11 34 15 163 17 89 2
180 8 202 13 22 4 60 9 85 9 53 2 94 15 70 23 -69 24 -90 29 -123 33 -21 2
-35 0 -32 -6 13 -21 -116 34 -153 66 -27 22 -42 30 -45 22 -3 -9 -12 -5 -31
11 -14 14 -24 27 -21 29 3 3 -3 11 -13 19 -16 12 -15 13 3 6 19 -7 20 -6 2 20
-10 15 -14 26 -10 25 7 -3 13 5 13 16 0 3 -60 -24 -132 -59 -73 -35 -173 -75
-222 -89 -93 -27 -451 -80 -489 -73 -12 2 -3 5 20 6 23 0 45 6 48 11 3 6 28
10 55 10 82 0 317 49 418 86 104 39 220 98 238 120 6 7 13 11 16 8 3 -2 8 2
12 11 3 10 2 14 -5 10 -5 -4 -17 -1 -26 7 -14 11 -16 11 -8 -2 8 -13 6 -13 -7
-2 -9 8 -14 20 -11 28 5 12 8 13 22 2 10 -7 2 1 -16 18 -20 19 -33 41 -33 56
0 13 -6 30 -12 37 -11 10 -8 11 15 7 16 -3 25 -1 22 5 -7 11 7 12 21 2 5 -5 1
-1 -8 9 -21 19 -24 33 -5 22 9 -6 9 -5 0 8 -7 8 -10 18 -6 21 3 4 3 7 -1 7
-10 0 -36 -26 -32 -31 2 -2 -8 -13 -22 -23 -14 -11 -22 -13 -17 -6 6 10 4 12
-9 7 -10 -4 -15 -3 -11 3 3 6 -1 10 -10 10 -9 0 -13 -4 -10 -10 3 -6 -1 -7 -9
-4 -9 3 -16 10 -16 16 0 5 4 7 9 4 5 -3 12 1 15 10 3 9 11 12 18 8 8 -5 9 -2
5 10 -6 14 -3 16 16 11 l22 -7 -23 17 c-13 9 -29 14 -37 11 -8 -3 -14 -2 -14
2 3 19 -2 25 -11 12 -6 -10 -10 -11 -10 -2 0 6 -5 12 -10 12 -7 0 -7 -7 0 -21
11 -19 10 -20 -9 -9 -12 6 -21 7 -21 1 0 -5 -9 -7 -20 -4 -15 4 -20 0 -21 -13
0 -11 -3 -14 -5 -8 -3 8 -33 0 -87 -23 -171 -74 -195 -81 -207 -69 -8 8 -9 7
-4 -7 3 -10 3 -17 -2 -15 -5 1 -19 -3 -32 -10 -16 -10 -27 -10 -40 -2 -14 9
-13 10 8 5 19 -5 21 -4 10 4 -13 9 -12 12 4 24 18 13 17 14 -18 12 -20 -2 -43
-8 -51 -15 -8 -7 -15 -7 -19 -1 -3 5 0 11 6 14 7 2 11 7 8 10 -3 3 -16 -3 -30
-14 -15 -11 -18 -17 -7 -13 9 3 17 1 17 -5 0 -6 -8 -12 -17 -13 -10 0 -23 -2
-30 -2 -7 -1 -18 -8 -25 -17 -7 -8 -21 -21 -31 -29 -17 -12 -17 -12 -6 13 7
15 16 24 22 20 6 -3 7 -1 3 5 -4 7 -4 12 1 12 4 0 19 10 33 21 l25 21 -29 -17
c-22 -13 -31 -15 -34 -6 -3 8 -12 5 -28 -10 -13 -12 -24 -18 -24 -11 0 6 11
19 25 30 20 16 22 21 9 26 -8 3 -13 2 -10 -3 3 -5 0 -14 -8 -20 -11 -9 -13 -6
-13 14 0 25 7 30 37 25 8 -1 12 1 9 5 -4 3 -22 8 -40 10 -19 2 -29 1 -22 -2
13 -5 6 -33 -9 -33 -5 0 -6 6 -2 13 4 6 3 9 -1 4 -5 -4 -10 -17 -12 -29 -3
-16 0 -18 9 -10 10 8 13 2 14 -28 1 -34 0 -37 -13 -24 -8 8 -19 11 -25 8 -7
-4 -7 0 -1 12 5 11 8 30 7 44 -1 14 3 30 8 37 13 17 5 59 -10 55 -8 -1 -11 2
-7 8 3 6 11 8 16 5 5 -4 9 1 9 10 0 9 4 14 8 11 5 -3 8 -18 7 -34 -1 -17 3
-29 11 -29 7 0 12 5 11 10 -1 5 13 19 31 30 29 17 36 18 44 6 8 -12 9 -12 5 1
-3 10 -14 14 -31 12 -19 -2 -26 1 -21 8 6 9 2 9 -14 0 -17 -9 -26 -9 -37 1
-11 9 -18 8 -32 -8 -21 -23 -71 -31 -52 -7 9 10 9 14 1 14 -10 0 -15 -13 -12
-32 1 -10 -42 -6 -56 5 -15 11 -18 31 -3 22 6 -3 10 -2 10 3 0 13 -50 33 -62
26 -7 -5 -8 -2 -4 5 5 7 14 10 22 7 8 -3 14 -1 14 4 0 9 -39 26 -52 22 -12 -3
-9 12 5 28 6 8 1 6 -12 -5 -22 -18 -24 -18 -18 -2 5 13 3 16 -6 10 -23 -14
-37 -11 -37 9 0 16 -5 19 -24 14 -14 -3 -28 -1 -31 4 -4 6 -11 7 -17 4 -5 -4
-3 5 7 19 12 19 13 27 4 33 -7 4 -9 3 -6 -3 4 -6 -2 -21 -13 -33 -11 -13 -20
-18 -20 -11 0 7 -4 10 -9 7 -14 -9 -42 5 -34 17 4 7 0 8 -11 4 -14 -5 -17 -3
-12 8 5 14 -6 20 -28 16 -5 -1 -6 4 -3 12 3 8 -1 14 -10 14 -9 0 -18 -9 -21
-19 -2 -10 -8 -15 -13 -12 -5 3 -7 9 -4 14 3 5 -4 8 -15 7 -11 -1 -20 -6 -20
-12 0 -5 -4 -3 -10 5 -6 9 -5 20 3 30 6 8 1 6 -11 -5 -20 -16 -25 -17 -32 -5
-7 11 -10 12 -10 2 0 -7 -5 -10 -11 -7 -6 4 -8 14 -5 24 5 12 2 11 -9 -3 -11
-14 -15 -16 -15 -5 0 8 -3 10 -8 4 -9 -13 -35 -18 -27 -5 3 5 1 10 -5 10 -6 0
-8 5 -4 13 5 7 1 7 -10 -2 -15 -13 -19 -13 -27 0 -6 10 -9 11 -9 1 0 -10 -5
-10 -20 -2 -11 6 -20 8 -20 4 0 -3 -6 -2 -12 3 -7 5 -32 8 -55 8 -22 0 -39 3
-36 8 4 7 -27 9 -134 10 -29 0 -53 4 -53 8 0 5 -5 9 -11 9 -5 0 -7 -5 -3 -12
4 -6 3 -8 -4 -4 -6 3 -14 2 -17 -4 -4 -7 -12 -7 -18 -2 -7 5 -21 9 -32 10 -11
1 -29 3 -40 6 -11 2 -25 -1 -32 -6 -7 -6 -14 -5 -19 3 -5 8 -3 9 6 4 8 -5 11
-4 6 3 -4 6 -13 9 -21 6 -8 -4 -12 -11 -8 -17 3 -5 1 -7 -5 -3 -6 3 -13 2 -17
-4 -4 -7 -13 -7 -26 0 -11 6 -24 8 -29 5 -9 -6 -14 8 -11 28 1 5 -4 7 -11 5
-7 -3 -14 -13 -16 -24 -3 -16 -1 -16 7 -4 7 10 11 11 11 3 0 -7 -9 -17 -20
-23 -16 -8 -18 -8 -14 4 4 11 0 14 -15 11 -14 -2 -19 0 -15 7 5 7 -2 9 -20 4
-24 -6 -26 -5 -14 8 7 7 16 12 21 9 4 -2 7 1 7 7 0 14 -15 19 -62 23 -21 2
-41 6 -44 10 -4 4 -13 -1 -20 -11 -12 -15 -13 -13 -8 13 3 19 1 25 -4 17 -5
-8 -13 -14 -18 -14 -5 0 -20 -4 -33 -9 -13 -5 -26 -7 -29 -4 -3 3 0 5 6 5 9 0
9 5 0 19 -7 11 -15 18 -20 15 -11 -7 -48 19 -48 33 0 6 -5 15 -11 18 -6 4 -10
1 -8 -6 4 -34 0 -38 -30 -26 -17 6 -28 14 -26 17 3 4 -19 6 -48 4 -29 -2 -43
0 -32 4 11 4 21 15 23 25 2 13 -4 17 -28 17 -32 0 -38 8 -18 28 9 9 9 12 0 12
-7 0 -15 -7 -18 -15 -4 -8 -12 -15 -20 -15 -17 0 -18 16 -1 24 6 3 2 3 -11 0
-12 -3 -37 -7 -55 -9 l-32 -4 28 15 c15 8 32 12 37 9 6 -3 10 -2 10 3 0 41
1063 425 1220 442 l75 7 -60 0 c-33 1 -69 -1 -80 -4z m-1485 -413 c-8 -5 -19
-10 -25 -10 -5 0 -3 5 5 10 8 5 20 10 25 10 6 0 3 -5 -5 -10z m420 -95 c0 -7
-30 -13 -34 -7 -3 4 4 9 15 9 10 1 19 0 19 -2z m1390 -274 c0 -6 -4 -12 -8
-15 -5 -3 -9 1 -9 9 0 8 4 15 9 15 4 0 8 -4 8 -9z m17 -13 c-3 -8 -6 -5 -6 6
-1 11 2 17 5 13 3 -3 4 -12 1 -19z m303 -154 c0 -8 -19 -13 -24 -6 -3 5 1 9 9
9 8 0 15 -2 15 -3z m220 -19 c0 -2 -9 -9 -20 -15 -12 -6 -20 -7 -20 -1 0 5 8
12 18 14 9 3 18 5 20 6 1 0 2 -1 2 -4z m-74 -58 c-1 -15 -8 -21 -19 -21 -12 1
-15 -2 -9 -10 11 -15 13 -54 2 -61 -5 -3 -12 0 -16 6 -4 7 -3 9 3 6 6 -4 11 4
11 19 0 23 -2 24 -18 9 -14 -13 -17 -13 -17 -1 0 8 5 14 11 13 6 -1 10 10 9
25 -2 21 2 26 15 22 14 -5 14 -4 3 4 -17 12 -44 4 -38 -12 3 -7 -4 -12 -14
-12 -13 0 -15 3 -7 13 7 9 7 13 -1 13 -6 0 -11 5 -11 12 0 9 3 9 11 1 9 -9 15
-8 26 2 20 20 61 0 59 -28z m717 -57 c-2 -2 -8 2 -12 9 -5 8 -14 10 -21 6 -9
-6 -10 -9 0 -15 8 -5 8 -10 2 -14 -21 -13 -20 24 1 39 20 14 22 14 28 -2 4
-10 5 -20 2 -23z m132 30 c3 -5 1 -10 -4 -10 -6 0 -11 5 -11 10 0 6 2 10 4 10
3 0 8 -4 11 -10z m-930 -19 c3 -5 2 -12 -3 -15 -5 -3 -9 1 -9 9 0 17 3 19 12
6z m328 -40 c-21 -17 -21 -20 -5 -26 15 -6 14 -8 -6 -16 -13 -5 -28 -6 -33 -3
-5 3 -8 0 -7 -8 2 -8 -4 -12 -16 -10 -12 2 -16 -1 -10 -9 4 -7 3 -10 -4 -5 -5
3 -12 1 -14 -5 -2 -7 -14 -13 -25 -14 -12 0 -28 -6 -35 -13 -12 -9 -14 -8 -13
7 1 20 55 90 55 72 0 -6 26 2 58 18 65 34 87 39 55 12z m-184 -41 c-18 -22
-34 -40 -36 -40 -2 0 9 18 23 40 15 22 31 40 36 40 5 0 -6 -18 -23 -40z m-50
-23 c0 -9 -2 -8 -6 1 -2 6 -10 9 -15 6 -7 -4 -8 -2 -4 5 9 13 26 5 25 -12z
m856 -67 c10 -11 16 -20 13 -20 -3 0 -13 9 -23 20 -10 11 -16 20 -13 20 3 0
13 -9 23 -20z m143 -165 c8 3 25 -4 38 -16 12 -12 44 -32 71 -46 26 -13 37
-21 23 -17 -14 3 -36 7 -50 8 -14 1 -37 10 -52 20 -15 10 -31 15 -36 13 -4 -3
-14 -1 -22 5 -12 8 -12 9 3 4 26 -8 21 0 -23 40 -22 20 -40 40 -40 44 0 4 16
-8 36 -27 22 -21 43 -32 52 -28z m-951 -91 c-3 -3 -12 -4 -19 -1 -8 3 -5 6 6
6 11 1 17 -2 13 -5z m628 -134 c8 -13 -5 -13 -25 0 -13 8 -13 10 2 10 9 0 20
-4 23 -10z m361 1 c-3 -4 22 -11 56 -15 34 -3 64 -10 67 -15 3 -5 21 -12 39
-16 18 -4 31 -9 29 -11 -3 -3 -33 2 -68 10 -35 8 -91 17 -123 21 -56 7 -58 8
-35 21 28 15 42 18 35 5z m-395 -19 c-7 -2 -18 1 -23 6 -8 8 -4 9 13 5 13 -4
18 -8 10 -11z m297 -39 c-10 -2 -28 -2 -40 0 -13 2 -5 4 17 4 22 1 32 -1 23
-4z m-2060 -10 c-27 -2 -69 -2 -95 0 -27 2 -5 3 47 3 52 0 74 -1 48 -3z m2762
-23 c8 -5 11 -10 5 -10 -5 0 -17 5 -25 10 -8 5 -10 10 -5 10 6 0 17 -5 25 -10z
m-932 -7 c-10 -2 -28 -2 -40 0 -13 2 -5 4 17 4 22 1 32 -1 23 -4z m-80 -10
c-10 -2 -26 -2 -35 0 -10 3 -2 5 17 5 19 0 27 -2 18 -5z m1231 -39 c45 -25 81
-47 81 -50 0 -3 -166 82 -179 93 -2 2 0 3 6 3 6 0 47 -21 92 -46z m-1339 25
c-25 -4 -58 -7 -75 -7 -25 1 -24 2 10 8 22 4 56 7 75 7 31 0 30 0 -10 -8z
m-122 -16 c-10 -2 -26 -2 -35 0 -10 3 -2 5 17 5 19 0 27 -2 18 -5z m-90 -10
c-10 -2 -28 -2 -40 0 -13 2 -5 4 17 4 22 1 32 -1 23 -4z m-81 -9 c-3 -3 -12
-4 -19 -1 -8 3 -5 6 6 6 11 1 17 -2 13 -5z m-140 -30 c-3 -3 -12 -4 -19 -1 -8
3 -5 6 6 6 11 1 17 -2 13 -5z m-104 -21 c-7 -2 -19 -2 -25 0 -7 3 -2 5 12 5
14 0 19 -2 13 -5z m2127 -43 c25 -16 41 -30 35 -30 -5 0 -30 14 -54 30 -24 17
-40 30 -35 30 5 0 29 -14 54 -30z m-45 -25 l20 -16 -20 10 c-11 5 -29 17 -40
26 l-20 16 20 -10 c11 -5 29 -17 40 -26z m116 -32 c13 -17 13 -17 -6 -3 -11 8
-22 16 -24 17 -2 2 0 3 6 3 6 0 17 -8 24 -17z m59 -9 c0 -2 -9 0 -20 6 -11 6
-20 13 -20 16 0 2 9 0 20 -6 11 -6 20 -13 20 -16z m-150 -31 c0 -7 -39 17 -46
28 -3 6 5 3 20 -6 14 -10 26 -19 26 -22z m176 -14 c8 -13 -21 1 -51 26 -19 15
-18 15 12 1 17 -9 35 -21 39 -27z m-85 -41 l24 -20 -31 17 c-17 10 -41 26 -55
37 l-24 20 31 -17 c17 -10 41 -26 55 -37z m-2984 36 c-3 -3 -12 -4 -19 -1 -8
3 -5 6 6 6 11 1 17 -2 13 -5z m-40 -10 c-3 -3 -12 -4 -19 -1 -8 3 -5 6 6 6 11
1 17 -2 13 -5z m3254 -341 c13 -16 12 -17 -3 -4 -17 13 -22 21 -14 21 2 0 10
-8 17 -17z m-2701 -3 c-8 -5 -19 -10 -25 -10 -5 0 -3 5 5 10 8 5 20 10 25 10
6 0 3 -5 -5 -10z m-1110 -19 c-8 -5 -26 -11 -40 -15 -21 -5 -20 -3 5 9 32 15
60 20 35 6z m1495 -25 c-111 -46 -345 -155 -500 -233 -127 -64 -219 -98 -150
-55 118 72 670 320 715 321 8 0 -21 -15 -65 -33z m-465 14 c-8 -5 -19 -10 -25
-10 -5 0 -3 5 5 10 8 5 20 10 25 10 6 0 3 -5 -5 -10z m-1101 -14 c-8 -8 -233
-96 -236 -92 -2 2 47 24 109 49 103 42 138 54 127 43z m1016 -21 c-27 -13 -54
-24 -60 -24 -5 1 13 11 40 24 28 13 55 24 60 24 6 -1 -12 -11 -40 -24z m-95
-40 c-14 -8 -29 -14 -35 -14 -5 0 1 6 15 14 14 8 30 14 35 14 6 0 -1 -6 -15
-14z m-100 -45 c-30 -16 -59 -29 -65 -29 -5 0 15 13 45 29 30 16 60 29 65 29
6 0 -15 -13 -45 -29z m-1080 0 c-8 -5 -19 -10 -25 -10 -5 0 -3 5 5 10 8 5 20
10 25 10 6 0 3 -5 -5 -10z m5000 -46 c0 -3 -13 4 -30 16 -16 12 -30 24 -30 26
0 3 14 -4 30 -16 17 -12 30 -24 30 -26z m-4005 6 c-3 -5 -12 -10 -18 -10 -7 0
-6 4 3 10 19 12 23 12 15 0z m945 -20 c-30 -16 -59 -29 -65 -29 -5 0 15 13 45
29 30 16 60 29 65 29 6 0 -15 -13 -45 -29z m-980 5 c0 -2 -10 -9 -22 -15 -22
-11 -22 -10 -4 4 21 17 26 19 26 11z m775 -100 c-127 -62 -195 -91 -182 -79 9
10 291 142 302 142 6 0 -48 -28 -120 -63z m3366 28 c13 -15 12 -15 -8 -4 -24
12 -29 21 -14 21 5 0 15 -7 22 -17z m-4021 -117 c0 -2 -7 -7 -16 -10 -8 -3
-12 -2 -9 4 6 10 25 14 25 6z m459 0 c-10 -9 -69 -36 -69 -32 0 7 52 35 64 36
5 0 7 -2 5 -4z m-79 -40 c0 -2 -7 -7 -16 -10 -8 -3 -12 -2 -9 4 6 10 25 14 25
6z m-40 -20 c0 -2 -7 -7 -16 -10 -8 -3 -12 -2 -9 4 6 10 25 14 25 6z m2750
-91 c0 -2 -10 -9 -22 -15 -22 -11 -22 -10 -4 4 21 17 26 19 26 11z"/>
<path d="M2530 2311 c0 -6 4 -13 10 -16 6 -3 7 1 4 9 -7 18 -14 21 -14 7z"/>
<path d="M2495 2298 c-11 -6 -27 -19 -35 -28 -8 -9 -11 -10 -6 -3 15 23 2 21
-21 -2 l-21 -22 23 0 c13 0 36 14 55 33 34 37 35 39 5 22z"/>
<path d="M3340 2015 c0 -6 56 -35 67 -35 4 0 -7 9 -25 20 -33 20 -42 24 -42
15z"/>
<path d="M1698 3433 c6 -2 18 -2 25 0 6 3 1 5 -13 5 -14 0 -19 -2 -12 -5z"/>
<path d="M3040 3431 c8 -6 28 -11 44 -11 39 0 31 6 -19 14 -29 5 -36 4 -25 -3z"/>
<path d="M1758 3423 c7 -3 16 -2 19 1 4 3 -2 6 -13 5 -11 0 -14 -3 -6 -6z"/>
<path d="M1178 3403 c7 -3 16 -2 19 1 4 3 -2 6 -13 5 -11 0 -14 -3 -6 -6z"/>
<path d="M1960 3385 c63 -13 126 -24 140 -23 14 0 -27 11 -90 24 -63 13 -126
23 -140 23 -14 -1 27 -12 90 -24z"/>
<path d="M3113 3403 c4 -3 17 -7 31 -8 13 -2 35 -6 48 -10 16 -5 20 -4 13 3
-5 6 -30 13 -54 16 -24 3 -41 3 -38 -1z"/>
<path d="M1108 3383 c7 -3 16 -2 19 1 4 3 -2 6 -13 5 -11 0 -14 -3 -6 -6z"/>
<path d="M3161 3376 c5 -4 134 -60 163 -70 10 -3 17 -9 14 -11 -3 -3 -38 8
-78 25 -40 17 -75 28 -78 25 -3 -3 1 -5 9 -5 12 0 11 -2 -1 -11 -13 -9 -13
-10 0 -7 8 2 41 -6 73 -17 43 -14 53 -21 40 -26 -12 -5 -7 -7 15 -6 18 0 35
-3 39 -6 9 -10 -58 -7 -82 3 l-20 9 20 1 c15 0 11 5 -14 16 -19 8 -42 13 -50
11 -9 -3 -2 -8 16 -12 18 -4 30 -11 28 -16 -3 -4 0 -11 7 -15 18 -12 108 -22
102 -12 -7 11 3 10 26 -2 30 -16 32 5 2 31 -14 13 -20 16 -13 7 15 -19 8 -22
-24 -8 -12 5 -14 9 -6 9 11 1 10 5 -5 17 -16 13 -16 15 -1 10 21 -7 22 1 2 20
-8 9 -20 12 -26 8 -8 -4 -7 -9 2 -15 33 -21 -16 -7 -78 21 -55 26 -96 39 -82
26z"/>
<path d="M3230 3370 c8 -5 20 -10 25 -10 6 0 3 5 -5 10 -8 5 -19 10 -25 10 -5
0 -3 -5 5 -10z"/>
<path d="M1015 3360 c-13 -5 -14 -9 -5 -9 8 0 24 4 35 9 13 5 14 9 5 9 -8 0
-24 -4 -35 -9z"/>
<path d="M2138 3353 c6 -2 18 -2 25 0 6 3 1 5 -13 5 -14 0 -19 -2 -12 -5z"/>
<path d="M2188 3343 c7 -3 16 -2 19 1 4 3 -2 6 -13 5 -11 0 -14 -3 -6 -6z"/>
<path d="M870 3315 c-19 -7 -28 -13 -20 -13 8 0 31 6 50 13 19 7 28 13 20 13
-8 0 -31 -6 -50 -13z"/>
<path d="M10038 3323 c7 -3 16 -2 19 1 4 3 -2 6 -13 5 -11 0 -14 -3 -6 -6z"/>
<path d="M10040 3300 c-13 -8 -13 -10 2 -10 9 0 20 5 23 10 8 13 -5 13 -25 0z"/>
<path d="M732 3273 c-24 -8 -41 -17 -39 -19 2 -2 28 5 58 15 30 11 47 20 39
19 -8 0 -34 -6 -58 -15z"/>
<path d="M10083 3265 c0 -8 4 -12 9 -9 4 3 8 9 8 15 0 5 -4 9 -8 9 -5 0 -9 -7
-9 -15z"/>
<path d="M3440 3246 c0 -2 8 -10 18 -17 15 -13 16 -12 3 4 -13 16 -21 21 -21
13z"/>
<path d="M3320 3230 c14 -4 44 -8 68 -9 28 -1 45 -6 48 -16 4 -8 11 -15 18
-15 16 -1 83 -60 68 -60 -7 0 -10 -4 -7 -10 3 -5 1 -10 -4 -10 -6 0 -11 4 -11
8 0 5 -10 14 -22 21 -23 11 -23 11 2 6 23 -5 23 -5 8 8 -11 8 -30 12 -50 8
-23 -3 -27 -6 -14 -9 28 -6 50 -29 33 -35 -7 -3 -4 -6 6 -6 10 -1 16 -5 13
-10 -4 -5 4 -7 16 -4 19 4 20 3 8 -6 -12 -9 -11 -11 10 -12 17 -1 20 -3 7 -6
-9 -2 -15 -9 -11 -14 4 -6 11 -6 20 2 11 9 21 4 51 -28 63 -67 102 -118 92
-121 -5 -2 -2 -10 6 -19 10 -10 25 -12 45 -8 33 7 51 25 25 25 -9 0 -14 4 -11
9 3 5 -5 11 -17 15 -27 7 -67 39 -67 54 0 6 -20 32 -45 58 -24 26 -42 50 -40
54 2 3 -6 7 -17 7 -19 2 -19 1 -3 -18 21 -22 11 -26 -11 -5 -18 18 -8 46 14
39 15 -4 15 -3 2 6 -8 6 -15 15 -15 21 0 5 -4 10 -10 11 -17 1 -45 31 -38 42
4 6 1 7 -6 3 -7 -5 -21 0 -32 9 -13 13 -39 19 -86 20 -45 2 -59 0 -43 -5z"/>
<path d="M3339 3207 c5 -5 28 -7 52 -5 l44 3 -52 5 c-29 3 -48 1 -44 -3z"/>
<path d="M3375 3181 c3 -6 24 -9 46 -9 27 0 37 3 28 9 -19 12 -82 11 -74 0z"/>
<path d="M3580 3146 c0 -2 8 -10 18 -17 15 -13 16 -12 3 4 -13 16 -21 21 -21
13z"/>
<path d="M10190 3136 c0 -2 7 -9 15 -16 9 -7 15 -8 15 -2 0 5 -7 12 -15 16 -8
3 -15 4 -15 2z"/>
<path d="M11220 3100 c-9 -6 -10 -10 -3 -10 6 0 15 5 18 10 8 12 4 12 -15 0z"/>
<path d="M11250 3099 c0 -5 5 -7 10 -4 6 3 10 8 10 11 0 2 -4 4 -10 4 -5 0
-10 -5 -10 -11z"/>
<path d="M85 3090 c-3 -5 1 -10 10 -10 9 0 13 5 10 10 -3 6 -8 10 -10 10 -2 0
-7 -4 -10 -10z"/>
<path d="M315 3050 c3 -5 8 -10 11 -10 2 0 4 5 4 10 0 6 -5 10 -11 10 -5 0 -7
-4 -4 -10z"/>
<path d="M10210 3051 c0 -6 4 -13 10 -16 6 -3 7 1 4 9 -7 18 -14 21 -14 7z"/>
<path d="M3525 3040 c-3 -6 1 -7 9 -4 18 7 21 14 7 14 -6 0 -13 -4 -16 -10z"/>
<path d="M10345 2989 c-4 -6 -5 -12 -2 -15 2 -3 7 2 10 11 7 17 1 20 -8 4z"/>
<path d="M486 2982 c-13 -12 -5 -21 15 -17 30 6 33 12 10 18 -11 2 -22 2 -25
-1z"/>
<path d="M3578 2963 c6 -2 18 -2 25 0 6 3 1 5 -13 5 -14 0 -19 -2 -12 -5z"/>
<path d="M10975 2950 c-3 -6 1 -7 9 -4 18 7 21 14 7 14 -6 0 -13 -4 -16 -10z"/>
<path d="M495 2920 c3 -5 10 -10 16 -10 5 0 9 5 9 10 0 6 -7 10 -16 10 -8 0
-12 -4 -9 -10z"/>
<path d="M630 2896 c0 -2 8 -10 17 -17 9 -8 14 -9 10 -2 -4 6 -1 14 5 16 7 3
3 6 -9 6 -13 1 -23 -1 -23 -3z"/>
<path d="M914 2793 c2 -10 6 -17 10 -16 15 3 16 11 2 22 -12 10 -14 9 -12 -6z"/>
<path d="M1022 2781 c-11 -7 -11 -9 0 -14 9 -3 15 1 15 9 0 8 -1 14 -1 14 -1
0 -7 -4 -14 -9z"/>
<path d="M3400 2775 c-14 -8 -20 -14 -15 -14 6 0 21 6 35 14 14 8 21 14 15 14
-5 0 -21 -6 -35 -14z"/>
<path d="M3324 2734 c-18 -14 -18 -15 4 -4 12 6 22 13 22 15 0 8 -5 6 -26 -11z"/>
<path d="M1929 2705 c-1 -3 -2 -8 -3 -12 -1 -5 -4 -13 -8 -19 -8 -12 45 -14
58 -2 3 4 -5 5 -19 2 -22 -3 -25 -1 -22 16 3 17 -2 30 -6 15z"/>
<path d="M3217 2674 c-31 -20 -54 -40 -51 -46 4 -7 10 -4 16 6 5 9 14 16 21
16 11 1 88 59 77 59 -3 0 -31 -16 -63 -35z"/>
<path d="M10636 2691 c-4 -5 -2 -12 3 -15 5 -4 12 -2 15 3 4 5 2 12 -3 15 -5
4 -12 2 -15 -3z"/>
<path d="M10825 2630 c-3 -6 1 -7 9 -4 18 7 21 14 7 14 -6 0 -13 -4 -16 -10z"/>
<path d="M3119 2611 c-28 -17 -35 -29 -23 -39 4 -4 4 -1 0 6 -4 7 -2 12 6 12
15 1 54 28 47 34 -2 2 -16 -4 -30 -13z"/>
<path d="M2076 2598 c3 -5 10 -6 15 -3 13 9 11 12 -6 12 -8 0 -12 -4 -9 -9z"/>
<path d="M10685 2600 c-3 -5 -1 -10 4 -10 6 0 11 5 11 10 0 6 -2 10 -4 10 -3
0 -8 -4 -11 -10z"/>
<path d="M10820 2600 c-9 -6 -11 -10 -3 -10 7 0 11 -6 9 -12 -1 -7 -1 -10 1
-5 3 4 8 5 12 3 4 -3 7 4 7 15 0 21 -4 23 -26 9z"/>
<path d="M3030 2590 c-12 -7 -10 -9 7 -7 12 0 19 5 17 9 -6 10 -6 10 -24 -2z"/>
<path d="M2165 2560 c-3 -5 -1 -10 4 -10 6 0 11 5 11 10 0 6 -2 10 -4 10 -3 0
-8 -4 -11 -10z"/>
<path d="M2254 2549 c-12 -13 -20 -16 -25 -8 -5 8 -8 8 -13 0 -4 -6 -2 -11 4
-11 6 0 8 -5 5 -10 -5 -8 -11 -7 -21 1 -8 7 -14 7 -14 1 0 -16 33 -24 41 -10
4 7 11 9 16 5 4 -5 -3 -17 -17 -27 -14 -10 -22 -21 -19 -24 6 -6 30 15 65 56
16 19 18 27 8 35 -9 9 -16 7 -30 -8z m20 -14 c-7 -16 -24 -21 -24 -6 0 8 7 13
27 20 1 1 0 -6 -3 -14z"/>
<path d="M3162 2563 c-8 -3 -5 -11 10 -24 13 -10 18 -18 13 -19 -6 0 -17 6
-25 13 -12 10 -12 9 -4 -3 12 -18 12 -30 -1 -50 -7 -12 -6 -13 7 -3 8 7 19 9
24 5 4 -4 2 2 -6 12 -14 18 -13 19 3 13 11 -4 16 -3 12 3 -3 6 -1 10 6 10 6 0
1 9 -12 21 -18 16 -20 19 -6 15 11 -3 16 -2 12 4 -7 11 -13 11 -33 3z"/>
<path d="M2425 2551 c3 -2 -1 -11 -8 -19 -9 -11 -4 -11 16 2 32 22 32 22 7 22
-10 0 -17 -2 -15 -5z"/>
<path d="M2316 2532 c-3 -4 4 -9 15 -9 23 -2 25 3 4 10 -8 4 -16 3 -19 -1z"/>
<path d="M3117 2529 c7 -7 15 -10 18 -7 3 3 -2 9 -12 12 -14 6 -15 5 -6 -5z"/>
<path d="M2855 2500 c-27 -16 -55 -33 -61 -39 -7 -5 -15 -7 -20 -3 -4 4 -4 2
0 -5 3 -6 2 -14 -4 -18 -6 -4 -7 -11 -4 -17 4 -6 -1 -8 -12 -5 -11 4 -30 -1
-44 -9 -24 -15 -16 -14 23 1 10 4 17 3 17 -4 0 -9 5 -9 21 0 17 9 19 13 8 20
-11 7 -10 9 4 9 10 0 15 5 12 11 -4 6 2 13 14 16 12 3 21 9 21 14 0 5 3 8 8 7
12 -3 72 32 72 42 0 6 -1 10 -2 9 -2 -1 -25 -14 -53 -29z"/>
<path d="M3080 2519 c-13 -9 -12 -10 3 -5 9 3 17 1 17 -3 0 -5 8 -12 17 -15
15 -6 15 -4 -2 14 -10 11 -19 20 -19 20 -1 0 -8 -5 -16 -11z"/>
<path d="M2901 2483 c-38 -22 -56 -29 -82 -32 -3 -1 -6 -8 -6 -16 0 -13 3 -13
21 -2 35 23 70 41 85 43 8 2 17 7 20 12 3 5 13 12 21 15 13 5 13 5 0 5 -8 1
-35 -11 -59 -25z"/>
<path d="M3075 2490 c3 -5 12 -10 20 -10 7 0 15 -5 17 -11 2 -7 11 -10 19 -7
9 3 4 10 -18 21 -37 19 -47 21 -38 7z"/>
<path d="M2586 2482 c-2 -4 4 -8 14 -8 10 0 16 4 14 8 -3 4 -9 8 -14 8 -5 0
-11 -4 -14 -8z"/>
<path d="M2725 2440 c-3 -6 1 -7 9 -4 18 7 21 14 7 14 -6 0 -13 -4 -16 -10z"/>
<path d="M2474 2432 c-15 -10 -25 -42 -14 -42 6 0 10 5 10 11 0 7 8 18 18 25
18 14 5 19 -14 6z"/>
<path d="M2496 2415 c-11 -8 -15 -15 -9 -15 7 0 15 5 18 11 4 6 14 8 22 5 8
-3 11 -1 8 4 -8 13 -16 12 -39 -5z"/>
<path d="M2535 2390 c-3 -5 -2 -10 4 -10 5 0 13 5 16 10 3 6 2 10 -4 10 -5 0
-13 -4 -16 -10z"/>
<path d="M2614 2384 c-18 -14 -18 -15 4 -4 12 6 22 13 22 15 0 8 -5 6 -26 -11z"/>
<path d="M6677 2389 c7 -7 15 -10 18 -7 3 3 -2 9 -12 12 -14 6 -15 5 -6 -5z"/>
<path d="M2487 2375 c3 -8 9 -12 14 -9 12 7 11 11 -5 17 -10 4 -13 1 -9 -8z"/>
<path d="M2444 2364 c-18 -14 -18 -15 4 -4 12 6 22 13 22 15 0 8 -5 6 -26 -11z"/>
<path d="M2640 2370 c-9 -6 -10 -10 -3 -10 6 0 15 5 18 10 8 12 4 12 -15 0z"/>
<path d="M2690 2376 c0 -2 7 -7 16 -10 8 -3 12 -2 9 4 -6 10 -25 14 -25 6z"/>
<path d="M3652 2355 c18 -17 88 -58 88 -52 0 3 -16 15 -36 27 -42 27 -39 38 5
15 17 -8 31 -13 31 -11 0 10 -46 29 -73 31 -22 2 -25 -1 -15 -10z"/>
<path d="M3620 2352 c0 -6 21 -22 46 -37 65 -38 47 -42 -27 -5 -45 21 -56 25
-39 11 14 -12 34 -24 45 -27 11 -4 37 -18 58 -31 21 -13 42 -21 47 -18 6 4 10
1 10 -4 0 -6 5 -11 12 -11 16 0 -19 37 -77 79 -66 49 -75 54 -75 43z m120 -87
c7 -8 8 -15 2 -15 -5 0 -15 7 -22 15 -7 8 -8 15 -2 15 5 0 15 -7 22 -15z"/>
<path d="M2625 2339 c-4 -6 -5 -12 -2 -15 2 -3 7 2 10 11 7 17 1 20 -8 4z"/>
<path d="M3170 2341 c0 -5 7 -12 16 -15 14 -5 15 -4 4 9 -14 17 -20 19 -20 6z"/>
<path d="M2330 2319 c0 -5 5 -7 10 -4 6 3 10 8 10 11 0 2 -4 4 -10 4 -5 0 -10
-5 -10 -11z"/>
<path d="M3546 2323 c-3 -4 2 -15 11 -26 18 -20 18 -20 -12 -1 -28 17 -29 17
-16 1 8 -10 46 -33 83 -52 38 -18 65 -36 60 -39 -9 -5 -119 51 -150 76 -7 6
-15 8 -18 5 -6 -6 1 -11 102 -71 64 -37 80 -43 69 -26 -4 7 3 9 19 6 37 -7 23
10 -32 39 -53 28 -82 49 -82 59 0 4 12 -1 28 -12 35 -24 132 -74 132 -68 0 3
-20 19 -45 36 -25 17 -45 28 -45 24 0 -4 -8 0 -17 8 -27 23 -80 48 -87 41z"/>
<path d="M3764 2284 c1 -8 8 -20 16 -27 12 -10 12 -9 2 5 -10 13 -10 17 0 20
8 3 7 6 -4 10 -10 4 -15 2 -14 -8z"/>
<path d="M3462 2281 c-15 -9 27 -50 92 -90 20 -13 35 -26 32 -28 -6 -6 -59 26
-111 67 -21 16 -43 30 -49 30 -6 0 1 -8 15 -18 14 -9 54 -36 89 -60 35 -23 71
-40 78 -37 8 3 23 -2 34 -11 10 -10 20 -15 23 -13 2 3 -25 24 -61 48 -36 24
-63 45 -60 48 3 3 27 -9 54 -26 27 -17 52 -31 57 -31 11 0 -33 33 -85 63 -25
14 -55 35 -67 47 -25 23 -24 22 -41 11z m73 -53 c5 -5 5 -8 0 -8 -13 0 -65 45
-65 55 0 5 12 -2 28 -16 15 -13 31 -27 37 -31z"/>
<path d="M3400 2246 c0 -3 9 -10 20 -16 11 -6 20 -8 20 -6 0 3 -9 10 -20 16
-11 6 -20 8 -20 6z"/>
<path d="M3465 2200 c10 -11 20 -20 23 -20 3 0 -3 9 -13 20 -10 11 -20 20 -23
20 -3 0 3 -9 13 -20z"/>
<path d="M3343 2195 c0 -8 4 -12 9 -9 5 3 6 10 3 15 -9 13 -12 11 -12 -6z"/>
<path d="M3295 2160 c2 -16 6 -34 10 -40 3 -5 0 -10 -7 -10 -10 0 -10 -2 1 -9
11 -7 11 -9 0 -13 -10 -3 -8 -8 8 -16 22 -12 27 -2 10 26 -5 6 -6 12 -2 12 3
0 1 9 -5 20 -8 15 -8 20 1 20 7 0 9 3 6 7 -4 3 -3 11 3 17 6 8 3 12 -10 13
-15 1 -18 -4 -15 -27z"/>
<path d="M3517 2129 c7 -7 15 -10 18 -7 3 3 -2 9 -12 12 -14 6 -15 5 -6 -5z"/>
<path d="M3620 2116 c0 -2 7 -7 16 -10 8 -3 12 -2 9 4 -6 10 -25 14 -25 6z"/>
<path d="M10228 2103 c7 -3 16 -2 19 1 4 3 -2 6 -13 5 -11 0 -14 -3 -6 -6z"/>
<path d="M3693 2077 c0 -8 6 -14 14 -14 9 0 10 4 2 14 -6 7 -12 13 -14 13 -1
0 -2 -6 -2 -13z"/>
<path d="M3740 2087 c0 -3 12 -12 26 -22 15 -9 23 -12 20 -6 -7 11 -46 35 -46
28z"/>
<path d="M6279 2063 c-13 -16 -12 -17 4 -4 16 13 21 21 13 21 -2 0 -10 -8 -17
-17z"/>
<path d="M3547 2059 c7 -7 15 -10 18 -7 3 3 -2 9 -12 12 -14 6 -15 5 -6 -5z"/>
<path d="M3617 2049 c7 -7 15 -10 18 -7 3 3 -2 9 -12 12 -14 6 -15 5 -6 -5z"/>
<path d="M3425 2040 c7 -11 65 -43 65 -36 0 2 -16 13 -36 25 -19 12 -32 16
-29 11z"/>
<path d="M3580 2046 c0 -3 14 -13 31 -21 17 -9 28 -19 25 -23 -4 -3 -25 5 -49
17 -42 23 -42 23 -17 1 21 -18 22 -21 5 -15 -54 19 -54 14 0 -13 73 -36 155
-64 155 -52 0 9 -62 33 -92 35 -10 1 -21 5 -25 10 -5 4 3 4 16 0 16 -5 21 -4
17 4 -11 17 -1 14 54 -19 29 -17 50 -26 48 -19 -4 11 -168 105 -168 95z"/>
<path d="M3687 2039 c7 -7 15 -10 18 -7 3 3 -2 9 -12 12 -14 6 -15 5 -6 -5z"/>
<path d="M3653 2033 c8 -13 87 -51 122 -58 28 -6 29 -5 12 8 -12 10 -14 17 -7
22 5 3 7 11 4 17 -4 7 -11 3 -18 -9 -8 -15 -16 -18 -31 -12 -11 4 -14 8 -7 8
7 1 10 6 6 12 -5 8 -9 8 -14 -1 -6 -9 -15 -8 -40 5 -18 9 -30 13 -27 8z"/>
<path d="M3434 2006 c11 -9 24 -16 30 -16 12 0 7 5 -24 19 -24 11 -24 11 -6
-3z"/>
<path d="M10362 1964 c-1 -13 0 -24 2 -24 7 0 14 40 7 44 -4 3 -8 -6 -9 -20z"/>
<path d="M6149 1953 l-24 -28 28 24 c25 23 32 31 24 31 -2 0 -14 -12 -28 -27z"/>
<path d="M10305 1930 c-19 -8 -19 -9 3 -9 12 -1 22 4 22 9 0 6 -1 10 -2 9 -2
0 -12 -4 -23 -9z"/>
<path d="M10370 1920 c0 -5 7 -7 15 -4 8 4 15 8 15 10 0 2 -7 4 -15 4 -8 0
-15 -4 -15 -10z"/>
<path d="M3800 1880 c0 -5 6 -10 14 -10 8 0 23 -3 33 -6 10 -3 7 2 -7 10 -30
18 -40 20 -40 6z"/>
<path d="M3850 1887 c24 -23 274 -109 296 -100 12 4 15 3 10 -5 -4 -7 -2 -10
7 -6 17 6 212 -66 270 -100 23 -14 38 -26 33 -26 -5 0 -29 12 -53 26 -25 14
-47 23 -50 20 -3 -3 -18 1 -33 9 -37 19 -160 65 -160 60 0 -3 46 -27 103 -54
56 -28 97 -50 90 -51 -6 0 -64 25 -128 55 -65 30 -127 55 -139 55 -12 0 -26 4
-31 8 -15 13 -105 45 -111 39 -6 -5 120 -57 140 -57 7 0 62 -24 122 -54 60
-29 120 -57 133 -61 76 -23 397 -185 484 -244 130 -87 496 -316 531 -332 18
-9 30 -9 37 -2 13 13 -36 47 -53 37 -6 -4 -8 -3 -4 4 4 7 -36 35 -104 72 -60
34 -108 65 -105 70 6 9 -179 114 -291 165 -42 19 -74 38 -71 41 7 8 188 -81
471 -231 110 -58 207 -105 216 -105 9 0 25 9 35 20 17 19 17 20 -26 39 -24 10
-132 60 -239 111 -181 85 -484 210 -510 210 -17 0 -341 152 -336 157 3 3 40
-11 84 -31 84 -38 97 -42 87 -27 -3 6 37 -8 88 -29 220 -92 321 -92 427 -1
l35 29 -25 10 c-14 5 -56 19 -95 31 -38 13 -98 36 -133 52 l-63 29 -62 -21
c-51 -17 -77 -20 -152 -15 -107 7 -125 9 -120 14 8 8 -39 39 -77 51 -21 7 -38
16 -38 20 0 5 20 2 45 -6 27 -10 55 -12 72 -8 16 4 22 10 16 12 -7 3 -13 12
-13 21 0 11 -3 13 -8 6 -4 -6 -16 -9 -27 -7 -31 6 -38 6 -59 -3 -15 -6 -17 -4
-11 7 7 11 6 12 -7 2 -12 -11 -26 -9 -74 8 -32 11 -76 22 -96 24 -20 2 -43 7
-50 11 -9 5 -10 4 -3 -4 6 -6 48 -20 95 -32 46 -12 91 -26 100 -31 12 -8 11
-9 -5 -5 -11 3 -57 14 -102 26 -94 23 -96 23 -88 10 4 -6 -10 -3 -29 7 -20 9
-34 18 -32 21 2 2 14 -2 26 -8 30 -16 36 -6 10 18 -19 18 -59 26 -175 36 -16
2 -41 6 -55 11 -14 4 -23 5 -20 2z m535 -157 c3 -6 -1 -7 -9 -4 -18 7 -21 14
-7 14 6 0 13 -4 16 -10z m130 -108 c-3 -3 -11 0 -18 7 -9 10 -8 11 6 5 10 -3
15 -9 12 -12z"/>
<path d="M6034 1858 l-29 -33 33 29 c17 17 32 31 32 33 0 8 -8 1 -36 -29z"/>
<path d="M3538 1863 c7 -3 16 -2 19 1 4 3 -2 6 -13 5 -11 0 -14 -3 -6 -6z"/>
<path d="M3233 1853 c9 -2 23 -2 30 0 6 3 -1 5 -18 5 -16 0 -22 -2 -12 -5z"/>
<path d="M5965 1807 c-11 -7 -26 -20 -34 -30 -7 -10 -26 -26 -40 -35 -15 -10
-51 -37 -80 -62 -29 -25 -57 -45 -62 -45 -18 0 -98 -60 -102 -77 -10 -36 10
-22 180 119 165 137 192 162 138 130z"/>
<path d="M10755 1770 c4 -6 11 -8 16 -5 14 9 11 15 -7 15 -8 0 -12 -5 -9 -10z"/>
<path d="M4493 1743 c15 -2 37 -2 50 0 12 2 0 4 -28 4 -27 0 -38 -2 -22 -4z"/>
<path d="M4488 1713 c6 -2 18 -2 25 0 6 3 1 5 -13 5 -14 0 -19 -2 -12 -5z"/>
<path d="M4553 1703 c15 -2 37 -2 50 0 12 2 0 4 -28 4 -27 0 -38 -2 -22 -4z"/>
<path d="M10793 1683 c0 -8 6 -9 19 -2 10 5 18 11 18 12 0 2 -8 3 -18 3 -10 0
-19 -6 -19 -13z"/>
<path d="M10840 1585 c0 -8 4 -15 10 -15 5 0 7 7 4 15 -4 8 -8 15 -10 15 -2 0
-4 -7 -4 -15z"/>
<path d="M4577 1576 c24 -18 153 -69 159 -63 2 2 -33 19 -79 38 -106 44 -106
44 -80 25z"/>
<path d="M4760 1500 c8 -5 22 -9 30 -9 10 0 8 3 -5 9 -27 12 -43 12 -25 0z"/>
<path d="M5005 1472 c6 -5 42 -20 80 -31 39 -12 105 -36 147 -52 42 -17 82
-28 89 -23 7 4 10 3 5 -4 -11 -18 35 -26 52 -8 13 13 13 16 1 21 -102 38 -249
81 -267 78 -13 -1 -21 0 -19 4 3 5 -7 9 -21 9 -15 1 -38 5 -52 9 -17 5 -22 4
-15 -3z"/>
<path d="M5544 1472 c3 -6 -2 -13 -11 -15 -16 -4 -16 -5 -1 -6 21 -1 32 15 17
25 -7 4 -9 3 -5 -4z"/>
<path d="M4881 1466 c4 -4 50 -24 269 -117 80 -34 198 -88 263 -120 87 -44
124 -58 142 -53 14 3 27 10 30 14 14 23 -309 169 -542 244 -94 30 -179 47
-162 32z"/>
<path d="M5438 1453 c6 -2 18 -2 25 0 6 3 1 5 -13 5 -14 0 -19 -2 -12 -5z"/>
<path d="M5493 1443 c-20 -7 -15 -23 7 -23 11 0 20 4 20 9 0 13 -12 19 -27 14z"/>
<path d="M10897 1426 c-4 -10 -3 -15 3 -11 6 3 10 1 10 -6 0 -7 3 -10 6 -6 3
3 2 13 -4 22 -8 16 -9 16 -15 1z"/>
<path d="M5320 1423 c8 -3 29 -12 47 -20 28 -13 35 -13 53 0 13 9 17 17 11 22
-6 3 -11 1 -11 -4 0 -6 -9 -11 -21 -11 -11 0 -18 3 -16 8 3 4 -14 8 -37 9 -22
1 -34 -1 -26 -4z"/>
<path d="M5444 1396 c-17 -13 -14 -15 36 -30 30 -9 66 -17 80 -18 14 -2 28 -7
32 -13 5 -6 8 -6 8 1 0 7 11 9 26 6 19 -3 22 -7 12 -13 -10 -7 -10 -9 2 -9 8
0 21 4 28 9 9 5 -23 19 -90 41 -57 18 -106 34 -109 36 -3 2 -15 -3 -25 -10z"/>
<path d="M5386 1352 c-14 -14 -6 -21 92 -74 112 -60 138 -69 128 -42 -3 8 -2
12 4 9 6 -3 10 -1 10 5 0 6 -7 13 -15 16 -8 4 -13 9 -10 14 2 4 -7 6 -20 4
-22 -2 -23 0 -15 17 6 10 7 19 3 19 -4 0 -42 11 -84 24 -70 22 -78 22 -93 8z
m151 -38 c-3 -3 -12 -4 -19 -1 -8 3 -5 6 6 6 11 1 17 -2 13 -5z"/>
<path d="M5593 1303 c9 -2 17 -8 17 -13 0 -4 10 -5 23 -2 22 6 22 6 -3 13 -14
4 -32 7 -40 7 -10 0 -9 -2 3 -5z"/>
<path d="M5140 1246 c0 -2 7 -7 16 -10 8 -3 12 -2 9 4 -6 10 -25 14 -25 6z"/>
<path d="M5085 1134 c57 -43 60 -45 32 -29 -16 9 -31 14 -33 12 -3 -3 20 -19
50 -37 31 -17 83 -52 117 -77 39 -30 64 -42 70 -36 6 6 -4 19 -28 35 -90 59
-121 80 -163 113 -25 19 -49 34 -55 34 -5 0 -1 -6 10 -15z"/>
<path d="M5827 1144 c-3 -4 8 -18 24 -31 29 -24 30 -25 49 -8 21 19 28 41 10
30 -5 -3 -10 -2 -10 3 0 10 -64 15 -73 6z"/>
<path d="M9218 1143 c12 -2 30 -2 40 0 9 3 -1 5 -23 4 -22 0 -30 -2 -17 -4z"/>
<path d="M9028 1133 c6 -2 18 -2 25 0 6 3 1 5 -13 5 -14 0 -19 -2 -12 -5z"/>
<path d="M8819 1111 c11 -7 11 -9 0 -14 -8 -3 16 -6 52 -6 43 -1 72 4 85 14
17 13 15 14 -33 15 -28 0 -55 -4 -58 -10 -3 -5 -11 -10 -16 -10 -6 0 -8 4 -5
8 2 4 -5 9 -17 9 -15 2 -18 0 -8 -6z"/>
<path d="M5992 1071 c-10 -6 -6 -11 17 -19 18 -7 29 -7 26 -2 -4 6 -13 10 -21
10 -8 0 -12 5 -9 10 7 12 4 12 -13 1z"/>
<path d="M5420 1060 c-9 -6 -10 -10 -3 -10 6 0 15 5 18 10 8 12 4 12 -15 0z"/>
<path d="M6067 1057 c-3 -7 3 -13 13 -13 10 0 16 6 13 13 -3 7 -9 13 -13 13
-4 0 -10 -6 -13 -13z"/>
<path d="M5835 1040 c-10 -11 -20 -18 -23 -15 -3 2 -13 0 -23 -6 -15 -7 -17
-6 -13 6 4 8 2 15 -3 15 -14 0 -14 -47 0 -58 9 -7 22 2 50 34 38 43 48 63 12
24z"/>
<path d="M6110 1030 c0 -5 5 -10 11 -10 5 0 7 5 4 10 -3 6 -8 10 -11 10 -2 0
-4 -4 -4 -10z"/>
<path d="M6253 1001 c1 -15 4 -17 14 -9 17 14 16 28 -1 28 -8 0 -14 -9 -13
-19z"/>
<path d="M8020 965 c-18 -18 -36 -34 -39 -33 -19 2 -31 -3 -26 -11 3 -6 -5
-15 -17 -22 -22 -12 -22 -11 -9 7 7 10 -21 -16 -63 -59 -42 -43 -74 -81 -72
-86 3 -5 -2 -15 -11 -22 -9 -8 -17 -12 -18 -9 0 3 -57 -49 -126 -116 -191
-186 -371 -343 -430 -374 -32 -18 -21 -4 19 22 126 84 562 499 575 548 6 22 5
22 -22 -4 -27 -26 -51 -26 -30 1 20 23 -1 14 -29 -14 -15 -15 -20 -21 -10 -14
9 7 19 8 22 3 3 -6 -3 -12 -14 -15 -12 -3 -24 1 -30 11 -5 10 -10 12 -10 5 0
-7 0 -15 0 -18 -1 -14 -47 -50 -59 -46 -10 3 -13 -1 -8 -12 3 -9 2 -19 -4 -22
-5 -4 -9 -3 -8 2 5 27 -4 35 -14 12 -7 -15 -16 -27 -22 -28 -5 0 -10 -6 -10
-13 0 -7 -11 -13 -25 -13 -14 -1 -33 -5 -42 -8 -10 -4 -25 -9 -34 -12 -8 -3
-12 -9 -9 -15 3 -6 -1 -7 -9 -4 -11 4 -16 0 -16 -12 0 -12 -3 -15 -8 -7 -5 8
-11 8 -24 -1 -10 -7 -16 -15 -13 -18 3 -2 -2 -5 -10 -5 -9 0 -14 6 -11 13 3 8
0 11 -9 7 -8 -3 -12 -9 -9 -14 7 -13 -10 -11 -23 2 -7 7 -15 5 -27 -6 -9 -9
-22 -15 -29 -12 -6 2 -25 -5 -41 -16 -16 -12 -26 -16 -22 -9 5 8 2 10 -9 6 -9
-4 -14 -12 -12 -18 3 -7 -6 -13 -20 -14 -17 -1 -22 2 -17 11 5 9 4 9 -7 0 -16
-15 -33 -17 -24 -3 3 6 -1 7 -9 4 -9 -3 -16 -10 -16 -15 0 -5 -6 -9 -12 -9
-19 -1 -171 -253 -184 -303 l-7 -29 69 6 c55 4 62 3 34 -4 -19 -6 -56 -9 -83
-8 -53 2 -61 -5 -91 -82 -10 -25 -20 -51 -23 -58 -4 -9 69 -12 344 -12 l349 0
116 123 c137 144 202 223 194 236 -4 5 -2 12 4 16 6 3 43 48 84 98 40 51 82
101 92 112 11 11 30 34 42 50 13 17 44 51 68 78 64 67 38 59 -31 -10 l-58 -58
53 65 c30 36 63 75 74 88 l21 23 -27 -3 c-29 -4 -60 -26 -53 -38 2 -4 -8 -5
-23 -2 -19 4 -22 7 -9 10 9 2 15 7 12 12 -3 5 0 12 6 16 8 5 9 3 4 -6 -5 -9
-4 -11 4 -6 6 4 9 12 6 17 -3 5 -1 14 4 21 6 7 25 31 43 53 28 34 28 37 5 16
-15 -14 -27 -19 -27 -13 0 6 5 14 10 17 6 3 10 12 10 18 -1 7 -9 2 -19 -10
-20 -25 -37 -31 -25 -10 4 6 -5 1 -19 -12 -15 -14 -27 -27 -27 -29 0 -3 9 3
20 13 11 10 20 13 20 7 0 -6 -9 -16 -19 -22 -15 -7 -23 -6 -35 6 -15 14 -29 2
-158 -128 -121 -122 -132 -131 -76 -63 36 44 103 116 148 159 82 79 156 156
148 156 -2 0 -19 -16 -38 -35z m48 -95 c-7 -11 -17 -20 -22 -20 -5 0 -1 9 9
20 10 11 20 20 22 20 2 0 -2 -9 -9 -20z m28 -72 c4 -7 3 -8 -4 -4 -7 4 -12 2
-12 -5 0 -7 -3 -10 -6 -6 -6 5 3 27 11 27 2 0 7 -5 11 -12z m-36 -42 c0 -3 -4
-8 -10 -11 -5 -3 -10 -1 -10 4 0 6 5 11 10 11 6 0 10 -2 10 -4z m-1007 -583
c-7 -2 -19 -2 -25 0 -7 3 -2 5 12 5 14 0 19 -2 13 -5z"/>
<path d="M5670 986 c0 -2 8 -10 18 -17 15 -13 16 -12 3 4 -13 16 -21 21 -21
13z"/>
<path d="M5816 962 c-15 -17 -14 -20 22 -43 20 -14 65 -44 98 -67 68 -46 58
-46 152 1 22 12 31 37 11 37 -5 0 -7 -5 -3 -12 5 -8 2 -9 -9 -5 -10 3 -17 2
-17 -4 0 -6 -4 -8 -9 -5 -5 3 -12 -1 -15 -9 -3 -8 -9 -14 -13 -14 -4 1 -16 -1
-26 -6 -11 -5 -23 -3 -30 5 -9 10 -9 11 1 6 7 -4 19 -2 27 4 8 6 19 9 25 5 5
-3 10 -2 10 3 0 5 -13 12 -29 14 -17 2 -28 1 -26 -3 6 -8 -44 -5 -67 5 -9 4
-15 13 -12 21 3 7 -2 15 -11 19 -9 3 -13 2 -10 -4 14 -22 -15 -8 -35 17 -14
18 -17 29 -9 33 7 5 7 10 1 14 -5 3 -17 -3 -26 -12z"/>
<path d="M5728 962 c-14 -6 -14 -10 -4 -24 12 -17 14 -17 30 0 23 26 10 38
-26 24z"/>
<path d="M5262 951 c-11 -7 -11 -9 1 -14 16 -6 27 0 27 15 0 10 -11 10 -28 -1z"/>
<path d="M5756 912 c-7 -12 24 -39 104 -92 36 -24 68 -47 71 -52 3 -4 13 -2
23 5 16 12 11 17 -52 60 -39 26 -73 47 -77 47 -4 0 -20 9 -35 20 -16 11 -31
16 -34 12z"/>
<path d="M7879 893 c-13 -16 -12 -17 4 -4 16 13 21 21 13 21 -2 0 -10 -8 -17
-17z"/>
<path d="M8125 868 l-40 -43 43 40 c39 36 47 45 39 45 -2 0 -21 -19 -42 -42z"/>
<path d="M6020 890 c0 -6 7 -10 15 -10 8 0 15 2 15 4 0 2 -7 6 -15 10 -8 3
-15 1 -15 -4z"/>
<path d="M6140 890 c-8 -5 -10 -10 -5 -10 6 0 17 5 25 10 8 5 11 10 5 10 -5 0
-17 -5 -25 -10z"/>
<path d="M5721 876 c2 -2 15 -9 29 -15 24 -11 24 -11 6 3 -16 13 -49 24 -35
12z"/>
<path d="M8140 855 c-13 -14 -19 -25 -13 -25 12 0 48 38 41 45 -2 3 -15 -6
-28 -20z"/>
<path d="M7840 860 c-9 -6 -10 -10 -3 -10 6 0 15 5 18 10 8 12 4 12 -15 0z"/>
<path d="M6070 829 c-38 -21 -12 -18 44 7 23 10 26 13 11 13 -11 0 -36 -9 -55
-20z"/>
<path d="M6122 781 l-134 -68 49 -35 c26 -19 63 -45 81 -57 l32 -23 118 88
c128 96 148 112 115 95 -16 -8 -22 -8 -26 2 -2 6 -10 12 -18 12 -14 1 -59 12
-89 22 -12 4 -12 7 4 19 40 29 -3 11 -132 -55z m233 -11 c3 -6 -1 -7 -9 -4
-18 7 -21 14 -7 14 6 0 13 -4 16 -10z"/>
<path d="M5770 836 c0 -2 7 -7 16 -10 8 -3 12 -2 9 4 -6 10 -25 14 -25 6z"/>
<path d="M6320 699 c-47 -33 -92 -65 -100 -70 -11 -8 -12 -11 -3 -15 7 -3 23
-14 35 -25 23 -20 23 -20 -17 0 -39 19 -42 19 -65 1 l-23 -18 43 -27 c57 -36
197 -106 207 -103 4 1 17 -3 28 -9 23 -13 37 -4 174 109 75 61 79 67 59 75
-13 4 -27 8 -33 8 -17 1 -57 26 -51 32 3 4 16 -2 28 -13 13 -10 8 -2 -11 19
-19 20 -37 35 -39 32 -2 -2 -19 7 -37 21 -24 18 -34 21 -37 12 -4 -10 -8 -10
-22 1 -15 13 -19 13 -27 0 -8 -11 -9 -10 -7 5 5 33 -15 26 -102 -35z m202 1
c14 -10 27 -17 30 -15 3 3 5 -2 5 -10 0 -21 -7 -19 -47 15 -39 33 -28 42 12
10z m-207 -158 c-3 -3 -11 0 -18 7 -9 10 -8 11 6 5 10 -3 15 -9 12 -12z"/>
<path d="M5895 730 c-11 -5 -144 -58 -295 -119 -425 -168 -684 -283 -1191
-526 l-166 -80 286 -3 c157 -1 295 0 306 2 12 3 108 67 215 142 346 243 653
439 857 549 50 27 61 46 25 44 -9 0 -26 -4 -37 -9z"/>
<path d="M5830 629 c-262 -147 -449 -267 -824 -531 l-139 -98 274 0 274 1 60
55 c137 125 393 333 639 519 l26 20 -51 34 c-40 25 -50 29 -45 15 6 -15 1 -13
-21 6 -15 14 -32 31 -36 38 -13 19 -24 15 -157 -59z"/>
<path d="M11040 650 c-9 -6 -10 -10 -3 -10 6 0 15 5 18 10 8 12 4 12 -15 0z"/>
<path d="M6615 519 c-98 -76 -139 -114 -137 -126 2 -12 0 -14 -5 -6 -10 14
-116 -64 -107 -78 4 -8 95 -72 130 -92 6 -3 28 17 49 45 38 49 38 51 19 65
-18 14 -18 15 5 8 20 -6 39 8 142 111 66 65 119 123 119 128 0 4 -7 3 -16 -4
-8 -8 -14 -9 -12 -4 3 10 -31 64 -41 63 -3 0 -69 -49 -146 -110z m155 91 c0
-5 -5 -10 -11 -10 -5 0 -7 5 -4 10 3 6 8 10 11 10 2 0 4 -4 4 -10z"/>
<path d="M6865 600 c3 -5 11 -10 16 -10 6 0 7 5 4 10 -3 6 -11 10 -16 10 -6 0
-7 -4 -4 -10z"/>
<path d="M6899 568 c-7 -13 -44 -58 -83 -101 -64 -70 -74 -77 -100 -71 -23 5
-35 0 -67 -32 -42 -41 -48 -54 -25 -54 8 0 18 -5 22 -11 4 -8 -3 -9 -24 -4
-27 6 -34 2 -66 -41 -28 -36 -33 -50 -25 -60 9 -11 6 -14 -14 -14 -14 0 -27
-6 -30 -14 -3 -8 -28 -46 -56 -85 -28 -39 -51 -73 -51 -76 0 -3 28 -5 61 -5
59 0 62 1 100 42 21 24 38 47 39 52 0 5 27 44 60 86 32 43 56 81 52 85 -4 5
-2 5 5 2 7 -5 54 41 119 115 59 68 95 112 81 99 -15 -14 -27 -19 -27 -13 0 6
5 14 10 17 6 4 8 11 5 16 -4 5 1 9 10 9 9 0 14 4 10 9 -3 5 0 13 6 16 5 4 8
14 5 22 -3 8 -1 11 4 8 6 -3 10 1 10 9 0 23 -17 19 -31 -6z m-34 -108 c3 -5 1
-10 -4 -10 -6 0 -11 5 -11 10 0 6 2 10 4 10 3 0 8 -4 11 -10z m-40 -33 c-32
-17 -134 -118 -140 -138 -6 -19 -25 -27 -25 -10 0 14 121 141 135 141 7 0 18
7 25 15 7 9 16 13 19 9 3 -3 -3 -10 -14 -17z"/>
<path d="M6920 464 c-58 -64 -124 -137 -148 -164 l-43 -48 32 -36 c38 -44 27
-47 -17 -5 l-33 32 -25 -29 c-14 -16 -49 -65 -78 -109 -29 -44 -56 -82 -60
-83 -5 -2 -8 -8 -8 -13 0 -5 50 -9 111 -9 l110 0 36 77 c32 69 34 78 19 88
-22 17 -20 28 2 16 20 -11 44 9 56 47 6 16 107 191 158 272 13 20 13 30 4 52
l-11 27 -105 -115z"/>
<path d="M11030 565 c0 -18 -16 -20 -23 -2 -3 7 -6 5 -6 -5 -1 -13 7 -18 23
-18 19 0 23 4 19 20 -6 24 -13 26 -13 5z"/>
<path d="M5964 438 c-188 -143 -385 -304 -469 -381 l-60 -56 241 -1 241 0 44
32 c43 31 221 172 387 305 93 75 93 75 2 112 -30 13 -92 43 -137 67 -46 24
-84 44 -86 44 -2 0 -75 -55 -163 -122z"/>
<path d="M6805 490 c-4 -6 -10 -8 -14 -6 -4 3 -8 -1 -8 -9 0 -13 4 -12 19 2
18 16 22 23 14 23 -3 0 -8 -5 -11 -10z"/>
<path d="M6736 441 c-4 -5 3 -7 14 -4 23 6 26 13 6 13 -8 0 -17 -4 -20 -9z"/>
<path d="M6710 421 c0 -5 7 -11 15 -15 8 -3 15 -1 15 3 0 5 -7 11 -15 15 -8 3
-15 1 -15 -3z"/>
<path d="M7799 373 c-13 -16 -12 -17 4 -4 9 7 17 15 17 17 0 8 -8 3 -21 -13z"/>
<path d="M10980 340 c-8 -5 -17 -7 -20 -5 -4 2 -7 -2 -7 -10 0 -12 3 -12 15
-2 13 10 14 9 3 -10 -9 -18 -9 -22 1 -18 18 7 40 43 30 49 -4 3 -14 1 -22 -4z"/>
<path d="M6243 233 c-49 -38 -134 -104 -190 -148 l-102 -80 202 -3 c231 -3
194 -18 287 115 l51 72 -41 21 c-23 12 -58 36 -79 56 l-39 34 -89 -67z"/>
<path d="M10966 185 c-3 -8 -1 -15 4 -15 6 0 10 7 10 15 0 8 -2 15 -4 15 -2 0
-6 -7 -10 -15z"/>
<path d="M10955 150 c4 -6 11 -8 16 -5 14 9 11 15 -7 15 -8 0 -12 -5 -9 -10z"/>
</g>
</svg>
