<?xml version="1.0" standalone="no"?>
<!DOCTYPE svg PUBLIC "-//W3C//DTD SVG 20010904//EN"
 "http://www.w3.org/TR/2001/REC-SVG-20010904/DTD/svg10.dtd">
<svg version="1.0" xmlns="http://www.w3.org/2000/svg"
 width="1120.000000pt" height="1120.000000pt" viewBox="0 0 1120.000000 1120.000000"
 preserveAspectRatio="xMidYMid meet">

<g transform="translate(0.000000,1120.000000) scale(0.100000,-0.100000)"
fill="#000000" stroke="none">
<path d="M6270 7950 l-45 -8 56 1 c30 0 60 -3 66 -6 7 -4 15 -2 19 4 10 16 25
-11 19 -36 -3 -11 -2 -14 1 -7 7 15 34 16 34 1 0 -5 -4 -8 -8 -5 -4 2 -8 -4
-8 -15 0 -10 3 -19 6 -19 3 0 7 -15 8 -32 1 -18 10 -39 19 -45 9 -7 12 -13 5
-13 -7 0 -12 -5 -12 -11 0 -5 4 -7 10 -4 6 4 7 -1 3 -11 -5 -14 -3 -16 12 -11
15 6 16 5 5 -8 -10 -12 -10 -15 5 -15 11 0 15 -5 11 -16 -4 -10 -2 -13 6 -8 7
5 9 2 5 -9 -4 -12 -2 -14 10 -10 14 5 15 1 10 -28 -5 -24 -4 -30 3 -19 9 13
10 13 10 0 0 -13 2 -13 9 -1 8 12 11 9 16 -12 5 -19 14 -27 30 -27 12 0 27 -6
33 -12 8 -10 -23 -13 -151 -14 -189 0 -265 -17 -412 -88 -93 -46 -238 -147
-313 -219 -113 -108 -239 -290 -297 -427 -48 -113 -68 -202 -75 -340 l-7 -125
-2 110 c-2 77 -5 103 -11 88 -5 -13 -17 -23 -26 -23 -10 0 -14 -3 -11 -7 4 -3
-1 -12 -11 -19 -13 -9 -20 -10 -31 -1 -12 9 -13 9 -8 0 5 -8 -7 -20 -33 -33
-22 -11 -40 -27 -40 -34 0 -8 -7 -17 -16 -20 -9 -4 -14 -9 -11 -13 9 -9 -13
-34 -24 -27 -5 3 -9 -2 -9 -10 0 -9 -9 -21 -20 -28 -11 -7 -20 -20 -20 -28 0
-8 -5 -22 -11 -30 -9 -13 -10 -12 -5 3 9 27 -1 20 -18 -13 -9 -19 -10 -28 -3
-24 7 4 0 -6 -16 -23 -15 -16 -24 -32 -20 -36 3 -4 1 -7 -5 -7 -7 0 -12 -9
-12 -21 0 -11 -4 -17 -10 -14 -5 3 -12 -7 -16 -22 -9 -38 -39 -79 -99 -136
-27 -27 35 15 140 94 527 396 846 637 905 684 210 167 686 516 747 548 204
106 527 93 726 -30 20 -13 37 -21 37 -19 0 8 -97 74 -118 80 -12 4 -22 12 -22
18 0 5 7 8 15 4 8 -3 21 1 27 9 11 12 24 2 82 -58 49 -52 57 -58 28 -22 -22
28 -129 138 -238 245 -264 259 -388 342 -587 390 -91 22 -267 33 -337 20z
m175 -140 c-3 -5 1 -10 9 -10 9 0 16 -4 16 -9 0 -5 -9 -7 -20 -4 -21 5 -28 33
-9 33 5 0 7 -4 4 -10z m430 -350 c3 -6 -1 -7 -9 -4 -18 7 -21 14 -7 14 6 0 13
-4 16 -10z m431 -66 c1 -9 0 -13 -4 -10 -3 4 -7 14 -8 22 -1 9 0 13 4 10 3 -4
7 -14 8 -22z"/>
<path d="M6568 7563 c6 -2 18 -2 25 0 6 3 1 5 -13 5 -14 0 -19 -2 -12 -5z"/>
<path d="M7430 7256 c0 -2 8 -10 18 -17 15 -13 16 -12 3 4 -13 16 -21 21 -21
13z"/>
<path d="M7500 7195 c19 -19 36 -35 39 -35 3 0 -10 16 -29 35 -19 19 -36 35
-39 35 -3 0 10 -16 29 -35z"/>
<path d="M6978 6713 c17 -2 47 -2 65 0 17 2 3 4 -33 4 -36 0 -50 -2 -32 -4z"/>
<path d="M6908 6703 c6 -2 18 -2 25 0 6 3 1 5 -13 5 -14 0 -19 -2 -12 -5z"/>
<path d="M7088 6703 c6 -2 18 -2 25 0 6 3 1 5 -13 5 -14 0 -19 -2 -12 -5z"/>
<path d="M7230 6656 c0 -3 9 -10 20 -16 11 -6 20 -8 20 -6 0 3 -9 10 -20 16
-11 6 -20 8 -20 6z"/>
<path d="M6664 6599 c-118 -83 -944 -735 -944 -746 0 -3 19 10 43 29 23 19
141 113 262 208 121 95 254 201 295 235 68 56 331 256 390 297 14 9 22 17 19
17 -3 1 -32 -18 -65 -40z"/>
<path d="M3593 6161 c-61 -64 -124 -132 -140 -151 -15 -19 -30 -37 -34 -40 -6
-5 -134 -165 -167 -210 -11 -14 -23 -36 -27 -50 -4 -14 -16 -33 -26 -43 -11
-10 -19 -25 -19 -33 0 -8 -5 -12 -10 -9 -6 4 -10 3 -9 -2 4 -21 -2 -43 -16
-57 -8 -8 -18 -32 -21 -53 -3 -21 -9 -40 -13 -43 -3 -3 -7 -12 -8 -20 -1 -8
-5 -28 -8 -45 -4 -16 -8 -34 -9 -40 -1 -5 -5 -15 -9 -22 -10 -16 -12 -73 -3
-100 5 -15 3 -23 -5 -23 -8 0 -8 -4 2 -16 7 -9 12 -35 10 -64 -1 -29 2 -51 9
-55 9 -6 9 -10 -1 -16 -10 -6 -11 -9 -1 -9 6 0 12 -5 12 -11 0 -5 -6 -7 -12
-3 -9 5 -8 2 1 -9 8 -10 11 -20 8 -23 -6 -6 27 -103 50 -147 8 -16 12 -35 9
-43 -3 -7 0 -16 6 -20 6 -4 8 -3 4 4 -3 6 -2 13 3 16 10 7 9 -13 -2 -30 -10
-17 4 -25 22 -11 12 9 12 6 -2 -16 -10 -16 -16 -31 -13 -35 3 -3 6 1 6 9 1 10
4 9 11 -4 6 -9 14 -15 19 -12 5 3 11 1 15 -5 3 -5 0 -10 -7 -10 -8 -1 -5 -7 7
-18 11 -9 29 -38 39 -64 9 -26 22 -51 28 -54 7 -5 8 -2 3 7 -5 8 -4 10 0 6 5
-4 10 -15 11 -24 5 -31 49 -103 64 -103 13 0 13 -1 0 -10 -8 -5 -12 -10 -7
-11 40 -8 55 -20 51 -42 -2 -12 -1 -16 2 -9 5 10 10 8 21 -7 8 -12 11 -26 8
-31 -4 -7 3 -7 19 0 30 11 32 8 10 -15 -13 -13 -14 -16 -3 -15 32 5 49 -1 49
-16 0 -10 6 -14 14 -11 10 4 13 1 9 -9 -3 -9 1 -14 12 -14 9 0 13 -4 10 -10
-3 -5 -1 -10 5 -10 14 0 40 -25 40 -39 0 -5 10 -11 23 -13 12 -2 21 -9 19 -16
-1 -7 11 -20 28 -30 16 -9 30 -23 30 -29 0 -7 7 -13 15 -13 9 0 18 -7 21 -15
4 -8 10 -12 15 -9 5 3 9 1 9 -4 0 -14 76 -92 89 -92 7 0 9 -4 6 -10 -3 -5 -1
-10 5 -10 6 0 8 -4 5 -10 -3 -5 1 -10 9 -10 9 0 16 -7 16 -15 0 -8 7 -15 15
-15 8 0 15 -7 15 -15 0 -8 7 -15 16 -15 8 0 12 -4 9 -10 -3 -5 -1 -10 5 -10 5
0 24 -13 41 -30 18 -16 36 -27 42 -23 6 3 7 1 3 -5 -8 -13 77 -97 117 -115 25
-11 31 -20 28 -40 -1 -5 3 -6 9 -2 6 3 7 12 3 18 -3 7 7 -3 24 -20 17 -18 38
-33 47 -33 8 0 25 -13 38 -30 12 -16 28 -30 35 -30 7 0 13 -4 13 -10 0 -5 7
-10 15 -10 8 0 15 -4 15 -10 0 -5 16 -17 35 -26 19 -9 35 -21 35 -26 0 -5 5
-6 10 -3 6 4 17 1 25 -5 8 -7 15 -9 15 -4 0 4 6 0 13 -10 8 -11 20 -17 28 -14
7 2 29 -6 48 -19 18 -13 51 -28 72 -35 21 -6 36 -14 34 -19 -3 -4 4 -5 15 -2
11 3 20 1 20 -5 0 -8 46 -29 80 -37 3 -1 16 -6 30 -12 14 -7 61 -19 105 -28
44 -9 94 -20 111 -26 17 -5 44 -9 60 -9 16 0 63 -7 104 -16 41 -8 91 -13 110
-10 24 4 29 3 15 -3 -32 -13 172 -1 250 15 93 19 154 49 251 122 90 68 274
265 306 326 l20 40 -58 -52 c-66 -59 -209 -133 -300 -156 -34 -9 -97 -15 -140
-15 l-79 2 55 7 c64 8 130 34 130 50 0 6 4 9 9 5 5 -3 12 -1 16 5 6 10 69 40
93 44 7 1 18 8 24 14 7 7 18 12 26 12 7 0 11 4 7 9 -3 5 3 11 12 13 10 2 -23
2 -74 0 -120 -6 -198 17 -312 92 -46 31 -75 45 -63 33 28 -29 28 -43 1 -50
-29 -8 -52 2 -161 69 -82 51 -138 102 -486 448 -429 426 -469 474 -516 616
-34 102 -46 271 -27 370 26 133 88 284 158 385 30 44 24 40 -49 -35 -46 -47
-114 -112 -153 -145 -38 -33 -75 -64 -81 -70 -6 -5 -46 -41 -89 -80 -43 -38
-85 -83 -95 -98 l-18 -29 -42 59 c-114 159 -190 385 -190 570 0 114 13 177 56
273 39 87 16 65 -27 -26 -17 -36 -33 -89 -38 -133 -5 -40 -11 -75 -14 -77 -2
-3 -21 28 -42 68 -51 96 -59 189 -26 298 12 40 21 73 19 74 -2 1 -53 -50 -115
-113z"/>
<path d="M6625 6235 c-194 -42 -395 -182 -733 -509 -79 -77 -191 -202 -145
-163 14 12 23 15 28 8 3 -6 13 -11 21 -11 9 0 24 -10 35 -22 18 -22 18 -22 19
-3 0 11 4 16 8 10 13 -19 80 -64 85 -59 3 3 3 -3 0 -14 -3 -14 1 -22 16 -27
12 -3 29 -17 37 -31 9 -13 23 -24 30 -24 8 0 14 -5 14 -11 0 -6 9 -9 20 -6 11
3 20 1 20 -4 0 -5 7 -9 16 -9 8 0 12 -4 9 -10 -3 -6 1 -7 10 -4 8 4 27 -2 43
-12 15 -10 42 -19 60 -20 19 -2 37 -6 40 -10 4 -4 -4 -4 -17 -1 -18 4 -21 3
-12 -6 17 -17 13 -38 -11 -66 -13 -14 11 4 52 40 107 93 291 240 545 434 302
230 315 240 354 274 l34 29 -19 30 c-107 168 -331 247 -559 197z"/>
<path d="M7234 6048 l-19 -23 23 19 c21 18 27 26 19 26 -2 0 -12 -10 -23 -22z"/>
<path d="M5660 5809 l-45 -41 48 37 c41 33 53 45 45 45 -2 0 -23 -18 -48 -41z"/>
<path d="M5579 5743 l-24 -28 28 24 c25 23 32 31 24 31 -2 0 -14 -12 -28 -27z"/>
<path d="M5463 5647 c-199 -175 -291 -321 -328 -522 -48 -254 37 -514 262
-803 36 -46 68 -81 71 -77 7 7 92 -75 92 -90 0 -5 -21 13 -46 40 -25 28 -42
43 -38 35 4 -8 41 -52 83 -98 52 -58 77 -79 83 -70 7 12 12 4 9 -14 -2 -14
104 -100 166 -134 111 -62 233 -83 267 -45 14 15 15 24 7 39 -13 25 9 47 39
39 37 -9 21 10 -17 21 -53 16 -189 102 -252 158 -36 32 -55 44 -62 37 -8 -8
-7 -13 0 -17 6 -4 11 -5 11 -2 0 8 36 -22 91 -76 27 -27 53 -48 59 -48 5 0 10
-7 10 -16 0 -8 5 -12 10 -9 6 3 10 2 10 -4 0 -6 6 -8 13 -5 8 3 20 -2 27 -11
7 -8 11 -15 9 -16 -33 -7 -37 -6 -32 7 4 10 0 12 -11 8 -9 -3 -13 -10 -10 -15
11 -18 -14 -8 -39 15 -14 13 -28 22 -30 19 -3 -2 -8 5 -12 16 -4 13 -11 18
-22 14 -9 -4 -14 -2 -10 3 7 13 -10 41 -19 31 -7 -7 44 -87 78 -120 36 -35 15
-53 -35 -32 -10 4 -28 9 -40 10 -37 4 -38 5 -31 17 4 7 3 8 -5 4 -13 -8 -97
41 -87 51 3 3 11 1 18 -5 7 -6 -39 43 -103 108 -99 101 -199 224 -199 246 0 4
-7 12 -15 18 -8 6 -16 23 -19 38 -2 14 -9 36 -16 47 -14 27 -6 27 21 -1 12
-13 19 -17 15 -10 -4 7 -2 12 6 12 21 0 35 -13 43 -38 4 -13 9 -21 12 -18 3 2
10 0 17 -5 47 -40 60 -49 68 -49 5 0 6 -6 2 -12 -5 -8 0 -7 11 2 10 8 16 10
13 5 -4 -6 6 -21 21 -33 15 -12 41 -33 57 -47 49 -43 54 -46 64 -40 6 4 7 -1
3 -11 -5 -13 -3 -16 10 -11 11 4 14 2 10 -9 -5 -14 8 -20 20 -8 10 10 -114
145 -126 137 -5 -3 -7 -1 -4 5 4 5 -15 36 -42 69 -113 135 -210 314 -258 471
-21 73 -26 113 -31 245 -4 138 -2 169 18 253 26 115 91 248 155 322 26 28 45
52 43 52 -2 0 -40 -33 -85 -73z m142 -1537 c21 -22 34 -40 29 -40 -6 0 -25 18
-43 40 -17 22 -30 40 -29 40 2 0 22 -18 43 -40z m100 -90 c16 -16 24 -30 19
-30 -6 0 -23 14 -39 30 -16 17 -24 30 -19 30 6 0 23 -13 39 -30z m370 -70 c3
-5 0 -10 -7 -10 -7 0 -24 -3 -38 -6 -24 -6 -25 -6 -5 9 23 19 41 21 50 7z"/>
<path d="M3050 5190 c0 -5 5 -10 11 -10 5 0 7 5 4 10 -3 6 -8 10 -11 10 -2 0
-4 -4 -4 -10z"/>
<path d="M6083 5068 c-23 -35 -56 -92 -72 -128 -32 -68 -66 -201 -58 -222 3
-7 6 0 6 16 1 26 3 28 28 21 15 -3 30 -11 34 -16 3 -5 13 -7 22 -3 12 4 17 1
18 -12 0 -11 3 -14 5 -8 9 21 141 -32 137 -54 -2 -6 7 -16 18 -23 15 -8 19 -8
15 0 -5 7 -1 9 8 5 9 -3 16 -13 16 -21 0 -10 6 -12 21 -8 14 5 19 3 15 -3 -3
-6 9 -16 29 -22 19 -6 35 -16 35 -21 0 -6 4 -8 9 -4 5 3 19 -7 30 -21 12 -15
21 -24 21 -20 0 7 81 -32 90 -43 10 -12 56 -30 130 -52 66 -19 90 -21 210 -16
96 5 162 13 230 31 59 15 76 22 45 18 -27 -4 -102 -7 -165 -6 -236 2 -303 55
-790 622 l-45 53 -42 -63z"/>
<path d="M6140 4687 c0 -10 8 -17 18 -17 9 0 13 4 7 8 -5 4 -13 11 -17 16 -5
5 -8 2 -8 -7z"/>
<path d="M7328 4523 c7 -3 16 -2 19 1 4 3 -2 6 -13 5 -11 0 -14 -3 -6 -6z"/>
<path d="M7280 4510 c-8 -5 -10 -10 -5 -10 6 0 17 5 25 10 8 5 11 10 5 10 -5
0 -17 -5 -25 -10z"/>
<path d="M6180 3748 c0 -19 2 -20 10 -8 13 19 13 30 0 30 -5 0 -10 -10 -10
-22z"/>
</g>
</svg>
